<mxfile host="Electron" modified="2024-03-04T19:07:21.470Z" agent="Mozilla/5.0 (Windows NT 10.0; Win64; x64) AppleWebKit/537.36 (KHTML, like Gecko) draw.io/23.1.5 Chrome/120.0.6099.109 Electron/28.1.0 Safari/537.36" etag="E1Vd8SzxwX-C1Z0DO-O1" version="23.1.5" type="device">
  <diagram name="Page-1" id="7bX9ByjtTlOa8Ya-gz0w">
    <mxGraphModel dx="4225" dy="2753" grid="0" gridSize="10" guides="1" tooltips="1" connect="1" arrows="1" fold="1" page="0" pageScale="1" pageWidth="850" pageHeight="1100" math="0" shadow="0">
      <root>
        <mxCell id="0" />
        <mxCell id="1" parent="0" />
        <mxCell id="QdTI1uhQyMlmlqkuTwOz-1" value="Base_Table" style="shape=table;startSize=30;container=1;collapsible=1;childLayout=tableLayout;fixedRows=1;rowLines=0;fontStyle=1;align=center;resizeLast=1;html=1;" vertex="1" parent="1">
          <mxGeometry x="-698" y="-235" width="401.57" height="270" as="geometry">
            <mxRectangle x="-86" y="-40" width="101" height="30" as="alternateBounds" />
          </mxGeometry>
        </mxCell>
        <mxCell id="QdTI1uhQyMlmlqkuTwOz-2" value="" style="shape=tableRow;horizontal=0;startSize=0;swimlaneHead=0;swimlaneBody=0;fillColor=none;collapsible=0;dropTarget=0;points=[[0,0.5],[1,0.5]];portConstraint=eastwest;top=0;left=0;right=0;bottom=1;" vertex="1" parent="QdTI1uhQyMlmlqkuTwOz-1">
          <mxGeometry y="30" width="401.57" height="30" as="geometry" />
        </mxCell>
        <mxCell id="QdTI1uhQyMlmlqkuTwOz-3" value="PK" style="shape=partialRectangle;connectable=0;fillColor=none;top=0;left=0;bottom=0;right=0;fontStyle=1;overflow=hidden;whiteSpace=wrap;html=1;" vertex="1" parent="QdTI1uhQyMlmlqkuTwOz-2">
          <mxGeometry width="88.53570992606038" height="30" as="geometry">
            <mxRectangle width="88.53570992606038" height="30" as="alternateBounds" />
          </mxGeometry>
        </mxCell>
        <mxCell id="QdTI1uhQyMlmlqkuTwOz-4" value="id" style="shape=partialRectangle;connectable=0;fillColor=none;top=0;left=0;bottom=0;right=0;align=left;spacingLeft=6;fontStyle=5;overflow=hidden;whiteSpace=wrap;html=1;" vertex="1" parent="QdTI1uhQyMlmlqkuTwOz-2">
          <mxGeometry x="88.53570992606038" width="116.5714590890067" height="30" as="geometry">
            <mxRectangle width="116.5714590890067" height="30" as="alternateBounds" />
          </mxGeometry>
        </mxCell>
        <mxCell id="QdTI1uhQyMlmlqkuTwOz-102" value="UUID" style="shape=partialRectangle;connectable=0;fillColor=none;top=0;left=0;bottom=0;right=0;align=left;spacingLeft=6;fontStyle=5;overflow=hidden;whiteSpace=wrap;html=1;" vertex="1" parent="QdTI1uhQyMlmlqkuTwOz-2">
          <mxGeometry x="205.1071690150671" width="196.4628309849329" height="30" as="geometry">
            <mxRectangle width="196.4628309849329" height="30" as="alternateBounds" />
          </mxGeometry>
        </mxCell>
        <mxCell id="QdTI1uhQyMlmlqkuTwOz-5" value="" style="shape=tableRow;horizontal=0;startSize=0;swimlaneHead=0;swimlaneBody=0;fillColor=none;collapsible=0;dropTarget=0;points=[[0,0.5],[1,0.5]];portConstraint=eastwest;top=0;left=0;right=0;bottom=0;" vertex="1" parent="QdTI1uhQyMlmlqkuTwOz-1">
          <mxGeometry y="60" width="401.57" height="30" as="geometry" />
        </mxCell>
        <mxCell id="QdTI1uhQyMlmlqkuTwOz-6" value="NOT NULL" style="shape=partialRectangle;connectable=0;fillColor=none;top=0;left=0;bottom=0;right=0;editable=1;overflow=hidden;whiteSpace=wrap;html=1;" vertex="1" parent="QdTI1uhQyMlmlqkuTwOz-5">
          <mxGeometry width="88.53570992606038" height="30" as="geometry">
            <mxRectangle width="88.53570992606038" height="30" as="alternateBounds" />
          </mxGeometry>
        </mxCell>
        <mxCell id="QdTI1uhQyMlmlqkuTwOz-7" value="_first_name" style="shape=partialRectangle;connectable=0;fillColor=none;top=0;left=0;bottom=0;right=0;align=left;spacingLeft=6;overflow=hidden;whiteSpace=wrap;html=1;" vertex="1" parent="QdTI1uhQyMlmlqkuTwOz-5">
          <mxGeometry x="88.53570992606038" width="116.5714590890067" height="30" as="geometry">
            <mxRectangle width="116.5714590890067" height="30" as="alternateBounds" />
          </mxGeometry>
        </mxCell>
        <mxCell id="QdTI1uhQyMlmlqkuTwOz-103" value="varchar(20)" style="shape=partialRectangle;connectable=0;fillColor=none;top=0;left=0;bottom=0;right=0;align=left;spacingLeft=6;overflow=hidden;whiteSpace=wrap;html=1;" vertex="1" parent="QdTI1uhQyMlmlqkuTwOz-5">
          <mxGeometry x="205.1071690150671" width="196.4628309849329" height="30" as="geometry">
            <mxRectangle width="196.4628309849329" height="30" as="alternateBounds" />
          </mxGeometry>
        </mxCell>
        <mxCell id="QdTI1uhQyMlmlqkuTwOz-8" value="" style="shape=tableRow;horizontal=0;startSize=0;swimlaneHead=0;swimlaneBody=0;fillColor=none;collapsible=0;dropTarget=0;points=[[0,0.5],[1,0.5]];portConstraint=eastwest;top=0;left=0;right=0;bottom=0;" vertex="1" parent="QdTI1uhQyMlmlqkuTwOz-1">
          <mxGeometry y="90" width="401.57" height="30" as="geometry" />
        </mxCell>
        <mxCell id="QdTI1uhQyMlmlqkuTwOz-9" value="NOT NULL" style="shape=partialRectangle;connectable=0;fillColor=none;top=0;left=0;bottom=0;right=0;editable=1;overflow=hidden;whiteSpace=wrap;html=1;" vertex="1" parent="QdTI1uhQyMlmlqkuTwOz-8">
          <mxGeometry width="88.53570992606038" height="30" as="geometry">
            <mxRectangle width="88.53570992606038" height="30" as="alternateBounds" />
          </mxGeometry>
        </mxCell>
        <mxCell id="QdTI1uhQyMlmlqkuTwOz-10" value="_last_name" style="shape=partialRectangle;connectable=0;fillColor=none;top=0;left=0;bottom=0;right=0;align=left;spacingLeft=6;overflow=hidden;whiteSpace=wrap;html=1;" vertex="1" parent="QdTI1uhQyMlmlqkuTwOz-8">
          <mxGeometry x="88.53570992606038" width="116.5714590890067" height="30" as="geometry">
            <mxRectangle width="116.5714590890067" height="30" as="alternateBounds" />
          </mxGeometry>
        </mxCell>
        <mxCell id="QdTI1uhQyMlmlqkuTwOz-104" value="varchar(20)" style="shape=partialRectangle;connectable=0;fillColor=none;top=0;left=0;bottom=0;right=0;align=left;spacingLeft=6;overflow=hidden;whiteSpace=wrap;html=1;" vertex="1" parent="QdTI1uhQyMlmlqkuTwOz-8">
          <mxGeometry x="205.1071690150671" width="196.4628309849329" height="30" as="geometry">
            <mxRectangle width="196.4628309849329" height="30" as="alternateBounds" />
          </mxGeometry>
        </mxCell>
        <mxCell id="QdTI1uhQyMlmlqkuTwOz-11" value="" style="shape=tableRow;horizontal=0;startSize=0;swimlaneHead=0;swimlaneBody=0;fillColor=none;collapsible=0;dropTarget=0;points=[[0,0.5],[1,0.5]];portConstraint=eastwest;top=0;left=0;right=0;bottom=0;" vertex="1" parent="QdTI1uhQyMlmlqkuTwOz-1">
          <mxGeometry y="120" width="401.57" height="30" as="geometry" />
        </mxCell>
        <mxCell id="QdTI1uhQyMlmlqkuTwOz-12" value="NOT NULL" style="shape=partialRectangle;connectable=0;fillColor=none;top=0;left=0;bottom=0;right=0;editable=1;overflow=hidden;whiteSpace=wrap;html=1;" vertex="1" parent="QdTI1uhQyMlmlqkuTwOz-11">
          <mxGeometry width="88.53570992606038" height="30" as="geometry">
            <mxRectangle width="88.53570992606038" height="30" as="alternateBounds" />
          </mxGeometry>
        </mxCell>
        <mxCell id="QdTI1uhQyMlmlqkuTwOz-13" value="_gender" style="shape=partialRectangle;connectable=0;fillColor=none;top=0;left=0;bottom=0;right=0;align=left;spacingLeft=6;overflow=hidden;whiteSpace=wrap;html=1;" vertex="1" parent="QdTI1uhQyMlmlqkuTwOz-11">
          <mxGeometry x="88.53570992606038" width="116.5714590890067" height="30" as="geometry">
            <mxRectangle width="116.5714590890067" height="30" as="alternateBounds" />
          </mxGeometry>
        </mxCell>
        <mxCell id="QdTI1uhQyMlmlqkuTwOz-105" value="ENUM(MALE,FEMALE,OTHER)" style="shape=partialRectangle;connectable=0;fillColor=none;top=0;left=0;bottom=0;right=0;align=left;spacingLeft=6;overflow=hidden;whiteSpace=wrap;html=1;" vertex="1" parent="QdTI1uhQyMlmlqkuTwOz-11">
          <mxGeometry x="205.1071690150671" width="196.4628309849329" height="30" as="geometry">
            <mxRectangle width="196.4628309849329" height="30" as="alternateBounds" />
          </mxGeometry>
        </mxCell>
        <mxCell id="QdTI1uhQyMlmlqkuTwOz-14" style="shape=tableRow;horizontal=0;startSize=0;swimlaneHead=0;swimlaneBody=0;fillColor=none;collapsible=0;dropTarget=0;points=[[0,0.5],[1,0.5]];portConstraint=eastwest;top=0;left=0;right=0;bottom=0;" vertex="1" parent="QdTI1uhQyMlmlqkuTwOz-1">
          <mxGeometry y="150" width="401.57" height="30" as="geometry" />
        </mxCell>
        <mxCell id="QdTI1uhQyMlmlqkuTwOz-15" value="NOT NULL" style="shape=partialRectangle;connectable=0;fillColor=none;top=0;left=0;bottom=0;right=0;editable=1;overflow=hidden;whiteSpace=wrap;html=1;" vertex="1" parent="QdTI1uhQyMlmlqkuTwOz-14">
          <mxGeometry width="88.53570992606038" height="30" as="geometry">
            <mxRectangle width="88.53570992606038" height="30" as="alternateBounds" />
          </mxGeometry>
        </mxCell>
        <mxCell id="QdTI1uhQyMlmlqkuTwOz-16" value="_age" style="shape=partialRectangle;connectable=0;fillColor=none;top=0;left=0;bottom=0;right=0;align=left;spacingLeft=6;overflow=hidden;whiteSpace=wrap;html=1;" vertex="1" parent="QdTI1uhQyMlmlqkuTwOz-14">
          <mxGeometry x="88.53570992606038" width="116.5714590890067" height="30" as="geometry">
            <mxRectangle width="116.5714590890067" height="30" as="alternateBounds" />
          </mxGeometry>
        </mxCell>
        <mxCell id="QdTI1uhQyMlmlqkuTwOz-106" value="INT" style="shape=partialRectangle;connectable=0;fillColor=none;top=0;left=0;bottom=0;right=0;align=left;spacingLeft=6;overflow=hidden;whiteSpace=wrap;html=1;" vertex="1" parent="QdTI1uhQyMlmlqkuTwOz-14">
          <mxGeometry x="205.1071690150671" width="196.4628309849329" height="30" as="geometry">
            <mxRectangle width="196.4628309849329" height="30" as="alternateBounds" />
          </mxGeometry>
        </mxCell>
        <mxCell id="QdTI1uhQyMlmlqkuTwOz-17" style="shape=tableRow;horizontal=0;startSize=0;swimlaneHead=0;swimlaneBody=0;fillColor=none;collapsible=0;dropTarget=0;points=[[0,0.5],[1,0.5]];portConstraint=eastwest;top=0;left=0;right=0;bottom=0;" vertex="1" parent="QdTI1uhQyMlmlqkuTwOz-1">
          <mxGeometry y="180" width="401.57" height="30" as="geometry" />
        </mxCell>
        <mxCell id="QdTI1uhQyMlmlqkuTwOz-18" value="NOT NULL" style="shape=partialRectangle;connectable=0;fillColor=none;top=0;left=0;bottom=0;right=0;editable=1;overflow=hidden;whiteSpace=wrap;html=1;" vertex="1" parent="QdTI1uhQyMlmlqkuTwOz-17">
          <mxGeometry width="88.53570992606038" height="30" as="geometry">
            <mxRectangle width="88.53570992606038" height="30" as="alternateBounds" />
          </mxGeometry>
        </mxCell>
        <mxCell id="QdTI1uhQyMlmlqkuTwOz-19" value="_joined_at" style="shape=partialRectangle;connectable=0;fillColor=none;top=0;left=0;bottom=0;right=0;align=left;spacingLeft=6;overflow=hidden;whiteSpace=wrap;html=1;" vertex="1" parent="QdTI1uhQyMlmlqkuTwOz-17">
          <mxGeometry x="88.53570992606038" width="116.5714590890067" height="30" as="geometry">
            <mxRectangle width="116.5714590890067" height="30" as="alternateBounds" />
          </mxGeometry>
        </mxCell>
        <mxCell id="QdTI1uhQyMlmlqkuTwOz-107" value="DATE" style="shape=partialRectangle;connectable=0;fillColor=none;top=0;left=0;bottom=0;right=0;align=left;spacingLeft=6;overflow=hidden;whiteSpace=wrap;html=1;" vertex="1" parent="QdTI1uhQyMlmlqkuTwOz-17">
          <mxGeometry x="205.1071690150671" width="196.4628309849329" height="30" as="geometry">
            <mxRectangle width="196.4628309849329" height="30" as="alternateBounds" />
          </mxGeometry>
        </mxCell>
        <mxCell id="QdTI1uhQyMlmlqkuTwOz-20" style="shape=tableRow;horizontal=0;startSize=0;swimlaneHead=0;swimlaneBody=0;fillColor=none;collapsible=0;dropTarget=0;points=[[0,0.5],[1,0.5]];portConstraint=eastwest;top=0;left=0;right=0;bottom=0;" vertex="1" parent="QdTI1uhQyMlmlqkuTwOz-1">
          <mxGeometry y="210" width="401.57" height="30" as="geometry" />
        </mxCell>
        <mxCell id="QdTI1uhQyMlmlqkuTwOz-21" value="&lt;b&gt;UNIQUE&lt;/b&gt;" style="shape=partialRectangle;connectable=0;fillColor=none;top=0;left=0;bottom=0;right=0;editable=1;overflow=hidden;whiteSpace=wrap;html=1;" vertex="1" parent="QdTI1uhQyMlmlqkuTwOz-20">
          <mxGeometry width="88.53570992606038" height="30" as="geometry">
            <mxRectangle width="88.53570992606038" height="30" as="alternateBounds" />
          </mxGeometry>
        </mxCell>
        <mxCell id="QdTI1uhQyMlmlqkuTwOz-22" value="_email" style="shape=partialRectangle;connectable=0;fillColor=none;top=0;left=0;bottom=0;right=0;align=left;spacingLeft=6;overflow=hidden;whiteSpace=wrap;html=1;" vertex="1" parent="QdTI1uhQyMlmlqkuTwOz-20">
          <mxGeometry x="88.53570992606038" width="116.5714590890067" height="30" as="geometry">
            <mxRectangle width="116.5714590890067" height="30" as="alternateBounds" />
          </mxGeometry>
        </mxCell>
        <mxCell id="QdTI1uhQyMlmlqkuTwOz-108" value="varchar(20)" style="shape=partialRectangle;connectable=0;fillColor=none;top=0;left=0;bottom=0;right=0;align=left;spacingLeft=6;overflow=hidden;whiteSpace=wrap;html=1;" vertex="1" parent="QdTI1uhQyMlmlqkuTwOz-20">
          <mxGeometry x="205.1071690150671" width="196.4628309849329" height="30" as="geometry">
            <mxRectangle width="196.4628309849329" height="30" as="alternateBounds" />
          </mxGeometry>
        </mxCell>
        <mxCell id="QdTI1uhQyMlmlqkuTwOz-23" style="shape=tableRow;horizontal=0;startSize=0;swimlaneHead=0;swimlaneBody=0;fillColor=none;collapsible=0;dropTarget=0;points=[[0,0.5],[1,0.5]];portConstraint=eastwest;top=0;left=0;right=0;bottom=0;" vertex="1" parent="QdTI1uhQyMlmlqkuTwOz-1">
          <mxGeometry y="240" width="401.57" height="30" as="geometry" />
        </mxCell>
        <mxCell id="QdTI1uhQyMlmlqkuTwOz-24" value="&lt;span style=&quot;color: rgb(0, 0, 0); font-family: Helvetica; font-size: 12px; font-style: normal; font-variant-ligatures: normal; font-variant-caps: normal; letter-spacing: normal; orphans: 2; text-align: center; text-indent: 0px; text-transform: none; widows: 2; word-spacing: 0px; -webkit-text-stroke-width: 0px; background-color: rgb(255, 255, 255); text-decoration-thickness: initial; text-decoration-style: initial; text-decoration-color: initial; float: none; display: inline !important;&quot;&gt;&lt;b&gt;UNIQUE&lt;/b&gt;&lt;/span&gt;" style="shape=partialRectangle;connectable=0;fillColor=none;top=0;left=0;bottom=0;right=0;editable=1;overflow=hidden;whiteSpace=wrap;html=1;" vertex="1" parent="QdTI1uhQyMlmlqkuTwOz-23">
          <mxGeometry width="88.53570992606038" height="30" as="geometry">
            <mxRectangle width="88.53570992606038" height="30" as="alternateBounds" />
          </mxGeometry>
        </mxCell>
        <mxCell id="QdTI1uhQyMlmlqkuTwOz-25" value="_phone_number" style="shape=partialRectangle;connectable=0;fillColor=none;top=0;left=0;bottom=0;right=0;align=left;spacingLeft=6;overflow=hidden;whiteSpace=wrap;html=1;" vertex="1" parent="QdTI1uhQyMlmlqkuTwOz-23">
          <mxGeometry x="88.53570992606038" width="116.5714590890067" height="30" as="geometry">
            <mxRectangle width="116.5714590890067" height="30" as="alternateBounds" />
          </mxGeometry>
        </mxCell>
        <mxCell id="QdTI1uhQyMlmlqkuTwOz-109" value="varchar(10)" style="shape=partialRectangle;connectable=0;fillColor=none;top=0;left=0;bottom=0;right=0;align=left;spacingLeft=6;overflow=hidden;whiteSpace=wrap;html=1;" vertex="1" parent="QdTI1uhQyMlmlqkuTwOz-23">
          <mxGeometry x="205.1071690150671" width="196.4628309849329" height="30" as="geometry">
            <mxRectangle width="196.4628309849329" height="30" as="alternateBounds" />
          </mxGeometry>
        </mxCell>
        <mxCell id="QdTI1uhQyMlmlqkuTwOz-66" value="EMPLOYEE" style="shape=table;startSize=30;container=1;collapsible=1;childLayout=tableLayout;fixedRows=1;rowLines=0;fontStyle=1;align=center;resizeLast=1;html=1;" vertex="1" parent="1">
          <mxGeometry x="63" y="393" width="513.3448780980605" height="180" as="geometry" />
        </mxCell>
        <mxCell id="QdTI1uhQyMlmlqkuTwOz-70" value="" style="shape=tableRow;horizontal=0;startSize=0;swimlaneHead=0;swimlaneBody=0;fillColor=none;collapsible=0;dropTarget=0;points=[[0,0.5],[1,0.5]];portConstraint=eastwest;top=0;left=0;right=0;bottom=0;" vertex="1" parent="QdTI1uhQyMlmlqkuTwOz-66">
          <mxGeometry y="30" width="513.3448780980605" height="30" as="geometry" />
        </mxCell>
        <mxCell id="QdTI1uhQyMlmlqkuTwOz-71" value="&lt;b&gt;UNIQUE&lt;/b&gt;" style="shape=partialRectangle;connectable=0;fillColor=none;top=0;left=0;bottom=0;right=0;editable=1;overflow=hidden;whiteSpace=wrap;html=1;" vertex="1" parent="QdTI1uhQyMlmlqkuTwOz-70">
          <mxGeometry width="67.3499755859375" height="30" as="geometry">
            <mxRectangle width="67.3499755859375" height="30" as="alternateBounds" />
          </mxGeometry>
        </mxCell>
        <mxCell id="QdTI1uhQyMlmlqkuTwOz-72" value="_employee_id" style="shape=partialRectangle;connectable=0;fillColor=none;top=0;left=0;bottom=0;right=0;align=left;spacingLeft=6;overflow=hidden;whiteSpace=wrap;html=1;" vertex="1" parent="QdTI1uhQyMlmlqkuTwOz-70">
          <mxGeometry x="67.3499755859375" width="112.6500244140625" height="30" as="geometry">
            <mxRectangle width="112.6500244140625" height="30" as="alternateBounds" />
          </mxGeometry>
        </mxCell>
        <mxCell id="QdTI1uhQyMlmlqkuTwOz-99" value="UUID" style="shape=partialRectangle;connectable=0;fillColor=none;top=0;left=0;bottom=0;right=0;align=left;spacingLeft=6;overflow=hidden;whiteSpace=wrap;html=1;" vertex="1" parent="QdTI1uhQyMlmlqkuTwOz-70">
          <mxGeometry x="180" width="333.34487809806046" height="30" as="geometry">
            <mxRectangle width="333.34487809806046" height="30" as="alternateBounds" />
          </mxGeometry>
        </mxCell>
        <mxCell id="QdTI1uhQyMlmlqkuTwOz-73" value="" style="shape=tableRow;horizontal=0;startSize=0;swimlaneHead=0;swimlaneBody=0;fillColor=none;collapsible=0;dropTarget=0;points=[[0,0.5],[1,0.5]];portConstraint=eastwest;top=0;left=0;right=0;bottom=0;" vertex="1" parent="QdTI1uhQyMlmlqkuTwOz-66">
          <mxGeometry y="60" width="513.3448780980605" height="30" as="geometry" />
        </mxCell>
        <mxCell id="QdTI1uhQyMlmlqkuTwOz-74" value="FK" style="shape=partialRectangle;connectable=0;fillColor=none;top=0;left=0;bottom=0;right=0;editable=1;overflow=hidden;whiteSpace=wrap;html=1;" vertex="1" parent="QdTI1uhQyMlmlqkuTwOz-73">
          <mxGeometry width="67.3499755859375" height="30" as="geometry">
            <mxRectangle width="67.3499755859375" height="30" as="alternateBounds" />
          </mxGeometry>
        </mxCell>
        <mxCell id="QdTI1uhQyMlmlqkuTwOz-75" value="_station_id" style="shape=partialRectangle;connectable=0;fillColor=none;top=0;left=0;bottom=0;right=0;align=left;spacingLeft=6;overflow=hidden;whiteSpace=wrap;html=1;" vertex="1" parent="QdTI1uhQyMlmlqkuTwOz-73">
          <mxGeometry x="67.3499755859375" width="112.6500244140625" height="30" as="geometry">
            <mxRectangle width="112.6500244140625" height="30" as="alternateBounds" />
          </mxGeometry>
        </mxCell>
        <mxCell id="QdTI1uhQyMlmlqkuTwOz-100" value="UUID" style="shape=partialRectangle;connectable=0;fillColor=none;top=0;left=0;bottom=0;right=0;align=left;spacingLeft=6;overflow=hidden;whiteSpace=wrap;html=1;" vertex="1" parent="QdTI1uhQyMlmlqkuTwOz-73">
          <mxGeometry x="180" width="333.34487809806046" height="30" as="geometry">
            <mxRectangle width="333.34487809806046" height="30" as="alternateBounds" />
          </mxGeometry>
        </mxCell>
        <mxCell id="QdTI1uhQyMlmlqkuTwOz-76" value="" style="shape=tableRow;horizontal=0;startSize=0;swimlaneHead=0;swimlaneBody=0;fillColor=none;collapsible=0;dropTarget=0;points=[[0,0.5],[1,0.5]];portConstraint=eastwest;top=0;left=0;right=0;bottom=0;" vertex="1" parent="QdTI1uhQyMlmlqkuTwOz-66">
          <mxGeometry y="90" width="513.3448780980605" height="30" as="geometry" />
        </mxCell>
        <mxCell id="QdTI1uhQyMlmlqkuTwOz-77" value="" style="shape=partialRectangle;connectable=0;fillColor=none;top=0;left=0;bottom=0;right=0;editable=1;overflow=hidden;whiteSpace=wrap;html=1;" vertex="1" parent="QdTI1uhQyMlmlqkuTwOz-76">
          <mxGeometry width="67.3499755859375" height="30" as="geometry">
            <mxRectangle width="67.3499755859375" height="30" as="alternateBounds" />
          </mxGeometry>
        </mxCell>
        <mxCell id="QdTI1uhQyMlmlqkuTwOz-78" value="_employee_type" style="shape=partialRectangle;connectable=0;fillColor=none;top=0;left=0;bottom=0;right=0;align=left;spacingLeft=6;overflow=hidden;whiteSpace=wrap;html=1;" vertex="1" parent="QdTI1uhQyMlmlqkuTwOz-76">
          <mxGeometry x="67.3499755859375" width="112.6500244140625" height="30" as="geometry">
            <mxRectangle width="112.6500244140625" height="30" as="alternateBounds" />
          </mxGeometry>
        </mxCell>
        <mxCell id="QdTI1uhQyMlmlqkuTwOz-101" value="ENUM(STATION_MANAGER,WORKER,STATION_ADMIN)" style="shape=partialRectangle;connectable=0;fillColor=none;top=0;left=0;bottom=0;right=0;align=left;spacingLeft=6;overflow=hidden;whiteSpace=wrap;html=1;" vertex="1" parent="QdTI1uhQyMlmlqkuTwOz-76">
          <mxGeometry x="180" width="333.34487809806046" height="30" as="geometry">
            <mxRectangle width="333.34487809806046" height="30" as="alternateBounds" />
          </mxGeometry>
        </mxCell>
        <mxCell id="QdTI1uhQyMlmlqkuTwOz-113" style="shape=tableRow;horizontal=0;startSize=0;swimlaneHead=0;swimlaneBody=0;fillColor=none;collapsible=0;dropTarget=0;points=[[0,0.5],[1,0.5]];portConstraint=eastwest;top=0;left=0;right=0;bottom=0;" vertex="1" parent="QdTI1uhQyMlmlqkuTwOz-66">
          <mxGeometry y="120" width="513.3448780980605" height="30" as="geometry" />
        </mxCell>
        <mxCell id="QdTI1uhQyMlmlqkuTwOz-114" style="shape=partialRectangle;connectable=0;fillColor=none;top=0;left=0;bottom=0;right=0;editable=1;overflow=hidden;whiteSpace=wrap;html=1;" vertex="1" parent="QdTI1uhQyMlmlqkuTwOz-113">
          <mxGeometry width="67.3499755859375" height="30" as="geometry">
            <mxRectangle width="67.3499755859375" height="30" as="alternateBounds" />
          </mxGeometry>
        </mxCell>
        <mxCell id="QdTI1uhQyMlmlqkuTwOz-115" value="_salary" style="shape=partialRectangle;connectable=0;fillColor=none;top=0;left=0;bottom=0;right=0;align=left;spacingLeft=6;overflow=hidden;whiteSpace=wrap;html=1;" vertex="1" parent="QdTI1uhQyMlmlqkuTwOz-113">
          <mxGeometry x="67.3499755859375" width="112.6500244140625" height="30" as="geometry">
            <mxRectangle width="112.6500244140625" height="30" as="alternateBounds" />
          </mxGeometry>
        </mxCell>
        <mxCell id="QdTI1uhQyMlmlqkuTwOz-116" value="DECIMAL" style="shape=partialRectangle;connectable=0;fillColor=none;top=0;left=0;bottom=0;right=0;align=left;spacingLeft=6;overflow=hidden;whiteSpace=wrap;html=1;" vertex="1" parent="QdTI1uhQyMlmlqkuTwOz-113">
          <mxGeometry x="180" width="333.34487809806046" height="30" as="geometry">
            <mxRectangle width="333.34487809806046" height="30" as="alternateBounds" />
          </mxGeometry>
        </mxCell>
        <mxCell id="QdTI1uhQyMlmlqkuTwOz-117" style="shape=tableRow;horizontal=0;startSize=0;swimlaneHead=0;swimlaneBody=0;fillColor=none;collapsible=0;dropTarget=0;points=[[0,0.5],[1,0.5]];portConstraint=eastwest;top=0;left=0;right=0;bottom=0;" vertex="1" parent="QdTI1uhQyMlmlqkuTwOz-66">
          <mxGeometry y="150" width="513.3448780980605" height="30" as="geometry" />
        </mxCell>
        <mxCell id="QdTI1uhQyMlmlqkuTwOz-118" value="FK" style="shape=partialRectangle;connectable=0;fillColor=none;top=0;left=0;bottom=0;right=0;editable=1;overflow=hidden;whiteSpace=wrap;html=1;" vertex="1" parent="QdTI1uhQyMlmlqkuTwOz-117">
          <mxGeometry width="67.3499755859375" height="30" as="geometry">
            <mxRectangle width="67.3499755859375" height="30" as="alternateBounds" />
          </mxGeometry>
        </mxCell>
        <mxCell id="QdTI1uhQyMlmlqkuTwOz-119" value="_payment_info_id" style="shape=partialRectangle;connectable=0;fillColor=none;top=0;left=0;bottom=0;right=0;align=left;spacingLeft=6;overflow=hidden;whiteSpace=wrap;html=1;" vertex="1" parent="QdTI1uhQyMlmlqkuTwOz-117">
          <mxGeometry x="67.3499755859375" width="112.6500244140625" height="30" as="geometry">
            <mxRectangle width="112.6500244140625" height="30" as="alternateBounds" />
          </mxGeometry>
        </mxCell>
        <mxCell id="QdTI1uhQyMlmlqkuTwOz-120" value="UUID" style="shape=partialRectangle;connectable=0;fillColor=none;top=0;left=0;bottom=0;right=0;align=left;spacingLeft=6;overflow=hidden;whiteSpace=wrap;html=1;" vertex="1" parent="QdTI1uhQyMlmlqkuTwOz-117">
          <mxGeometry x="180" width="333.34487809806046" height="30" as="geometry">
            <mxRectangle width="333.34487809806046" height="30" as="alternateBounds" />
          </mxGeometry>
        </mxCell>
        <mxCell id="QdTI1uhQyMlmlqkuTwOz-79" value="DELIVERY" style="shape=table;startSize=30;container=1;collapsible=1;childLayout=tableLayout;fixedRows=1;rowLines=0;fontStyle=1;align=center;resizeLast=1;html=1;" vertex="1" parent="1">
          <mxGeometry x="-980" y="217" width="350.35003662109375" height="210" as="geometry" />
        </mxCell>
        <mxCell id="QdTI1uhQyMlmlqkuTwOz-83" value="" style="shape=tableRow;horizontal=0;startSize=0;swimlaneHead=0;swimlaneBody=0;fillColor=none;collapsible=0;dropTarget=0;points=[[0,0.5],[1,0.5]];portConstraint=eastwest;top=0;left=0;right=0;bottom=0;" vertex="1" parent="QdTI1uhQyMlmlqkuTwOz-79">
          <mxGeometry y="30" width="350.35003662109375" height="30" as="geometry" />
        </mxCell>
        <mxCell id="QdTI1uhQyMlmlqkuTwOz-84" value="&lt;b&gt;UNIQUE&lt;/b&gt;" style="shape=partialRectangle;connectable=0;fillColor=none;top=0;left=0;bottom=0;right=0;editable=1;overflow=hidden;whiteSpace=wrap;html=1;" vertex="1" parent="QdTI1uhQyMlmlqkuTwOz-83">
          <mxGeometry width="63.10713849748879" height="30" as="geometry">
            <mxRectangle width="63.10713849748879" height="30" as="alternateBounds" />
          </mxGeometry>
        </mxCell>
        <mxCell id="QdTI1uhQyMlmlqkuTwOz-85" value="_delivery_person_id" style="shape=partialRectangle;connectable=0;fillColor=none;top=0;left=0;bottom=0;right=0;align=left;spacingLeft=6;overflow=hidden;whiteSpace=wrap;html=1;" vertex="1" parent="QdTI1uhQyMlmlqkuTwOz-83">
          <mxGeometry x="63.10713849748879" width="188.0428859165737" height="30" as="geometry">
            <mxRectangle width="188.0428859165737" height="30" as="alternateBounds" />
          </mxGeometry>
        </mxCell>
        <mxCell id="QdTI1uhQyMlmlqkuTwOz-95" value="UUID" style="shape=partialRectangle;connectable=0;fillColor=none;top=0;left=0;bottom=0;right=0;align=left;spacingLeft=6;overflow=hidden;whiteSpace=wrap;html=1;" vertex="1" parent="QdTI1uhQyMlmlqkuTwOz-83">
          <mxGeometry x="251.1500244140625" width="99.20001220703125" height="30" as="geometry">
            <mxRectangle width="99.20001220703125" height="30" as="alternateBounds" />
          </mxGeometry>
        </mxCell>
        <mxCell id="QdTI1uhQyMlmlqkuTwOz-86" value="" style="shape=tableRow;horizontal=0;startSize=0;swimlaneHead=0;swimlaneBody=0;fillColor=none;collapsible=0;dropTarget=0;points=[[0,0.5],[1,0.5]];portConstraint=eastwest;top=0;left=0;right=0;bottom=0;" vertex="1" parent="QdTI1uhQyMlmlqkuTwOz-79">
          <mxGeometry y="60" width="350.35003662109375" height="30" as="geometry" />
        </mxCell>
        <mxCell id="QdTI1uhQyMlmlqkuTwOz-87" value="" style="shape=partialRectangle;connectable=0;fillColor=none;top=0;left=0;bottom=0;right=0;editable=1;overflow=hidden;whiteSpace=wrap;html=1;" vertex="1" parent="QdTI1uhQyMlmlqkuTwOz-86">
          <mxGeometry width="63.10713849748879" height="30" as="geometry">
            <mxRectangle width="63.10713849748879" height="30" as="alternateBounds" />
          </mxGeometry>
        </mxCell>
        <mxCell id="QdTI1uhQyMlmlqkuTwOz-88" value="_delivery_person_area_code" style="shape=partialRectangle;connectable=0;fillColor=none;top=0;left=0;bottom=0;right=0;align=left;spacingLeft=6;overflow=hidden;whiteSpace=wrap;html=1;" vertex="1" parent="QdTI1uhQyMlmlqkuTwOz-86">
          <mxGeometry x="63.10713849748879" width="188.0428859165737" height="30" as="geometry">
            <mxRectangle width="188.0428859165737" height="30" as="alternateBounds" />
          </mxGeometry>
        </mxCell>
        <mxCell id="QdTI1uhQyMlmlqkuTwOz-96" value="INT" style="shape=partialRectangle;connectable=0;fillColor=none;top=0;left=0;bottom=0;right=0;align=left;spacingLeft=6;overflow=hidden;whiteSpace=wrap;html=1;" vertex="1" parent="QdTI1uhQyMlmlqkuTwOz-86">
          <mxGeometry x="251.1500244140625" width="99.20001220703125" height="30" as="geometry">
            <mxRectangle width="99.20001220703125" height="30" as="alternateBounds" />
          </mxGeometry>
        </mxCell>
        <mxCell id="QdTI1uhQyMlmlqkuTwOz-89" value="" style="shape=tableRow;horizontal=0;startSize=0;swimlaneHead=0;swimlaneBody=0;fillColor=none;collapsible=0;dropTarget=0;points=[[0,0.5],[1,0.5]];portConstraint=eastwest;top=0;left=0;right=0;bottom=0;" vertex="1" parent="QdTI1uhQyMlmlqkuTwOz-79">
          <mxGeometry y="90" width="350.35003662109375" height="30" as="geometry" />
        </mxCell>
        <mxCell id="QdTI1uhQyMlmlqkuTwOz-90" value="" style="shape=partialRectangle;connectable=0;fillColor=none;top=0;left=0;bottom=0;right=0;editable=1;overflow=hidden;whiteSpace=wrap;html=1;" vertex="1" parent="QdTI1uhQyMlmlqkuTwOz-89">
          <mxGeometry width="63.10713849748879" height="30" as="geometry">
            <mxRectangle width="63.10713849748879" height="30" as="alternateBounds" />
          </mxGeometry>
        </mxCell>
        <mxCell id="QdTI1uhQyMlmlqkuTwOz-91" value="_delivery_person_salary" style="shape=partialRectangle;connectable=0;fillColor=none;top=0;left=0;bottom=0;right=0;align=left;spacingLeft=6;overflow=hidden;whiteSpace=wrap;html=1;" vertex="1" parent="QdTI1uhQyMlmlqkuTwOz-89">
          <mxGeometry x="63.10713849748879" width="188.0428859165737" height="30" as="geometry">
            <mxRectangle width="188.0428859165737" height="30" as="alternateBounds" />
          </mxGeometry>
        </mxCell>
        <mxCell id="QdTI1uhQyMlmlqkuTwOz-97" value="DECIMAL" style="shape=partialRectangle;connectable=0;fillColor=none;top=0;left=0;bottom=0;right=0;align=left;spacingLeft=6;overflow=hidden;whiteSpace=wrap;html=1;" vertex="1" parent="QdTI1uhQyMlmlqkuTwOz-89">
          <mxGeometry x="251.1500244140625" width="99.20001220703125" height="30" as="geometry">
            <mxRectangle width="99.20001220703125" height="30" as="alternateBounds" />
          </mxGeometry>
        </mxCell>
        <mxCell id="QdTI1uhQyMlmlqkuTwOz-121" style="shape=tableRow;horizontal=0;startSize=0;swimlaneHead=0;swimlaneBody=0;fillColor=none;collapsible=0;dropTarget=0;points=[[0,0.5],[1,0.5]];portConstraint=eastwest;top=0;left=0;right=0;bottom=0;" vertex="1" parent="QdTI1uhQyMlmlqkuTwOz-79">
          <mxGeometry y="120" width="350.35003662109375" height="30" as="geometry" />
        </mxCell>
        <mxCell id="QdTI1uhQyMlmlqkuTwOz-122" value="FK" style="shape=partialRectangle;connectable=0;fillColor=none;top=0;left=0;bottom=0;right=0;editable=1;overflow=hidden;whiteSpace=wrap;html=1;" vertex="1" parent="QdTI1uhQyMlmlqkuTwOz-121">
          <mxGeometry width="63.10713849748879" height="30" as="geometry">
            <mxRectangle width="63.10713849748879" height="30" as="alternateBounds" />
          </mxGeometry>
        </mxCell>
        <mxCell id="QdTI1uhQyMlmlqkuTwOz-123" value="_payment_info_id" style="shape=partialRectangle;connectable=0;fillColor=none;top=0;left=0;bottom=0;right=0;align=left;spacingLeft=6;overflow=hidden;whiteSpace=wrap;html=1;" vertex="1" parent="QdTI1uhQyMlmlqkuTwOz-121">
          <mxGeometry x="63.10713849748879" width="188.0428859165737" height="30" as="geometry">
            <mxRectangle width="188.0428859165737" height="30" as="alternateBounds" />
          </mxGeometry>
        </mxCell>
        <mxCell id="QdTI1uhQyMlmlqkuTwOz-124" value="UUID" style="shape=partialRectangle;connectable=0;fillColor=none;top=0;left=0;bottom=0;right=0;align=left;spacingLeft=6;overflow=hidden;whiteSpace=wrap;html=1;" vertex="1" parent="QdTI1uhQyMlmlqkuTwOz-121">
          <mxGeometry x="251.1500244140625" width="99.20001220703125" height="30" as="geometry">
            <mxRectangle width="99.20001220703125" height="30" as="alternateBounds" />
          </mxGeometry>
        </mxCell>
        <mxCell id="QdTI1uhQyMlmlqkuTwOz-125" style="shape=tableRow;horizontal=0;startSize=0;swimlaneHead=0;swimlaneBody=0;fillColor=none;collapsible=0;dropTarget=0;points=[[0,0.5],[1,0.5]];portConstraint=eastwest;top=0;left=0;right=0;bottom=0;" vertex="1" parent="QdTI1uhQyMlmlqkuTwOz-79">
          <mxGeometry y="150" width="350.35003662109375" height="30" as="geometry" />
        </mxCell>
        <mxCell id="QdTI1uhQyMlmlqkuTwOz-126" style="shape=partialRectangle;connectable=0;fillColor=none;top=0;left=0;bottom=0;right=0;editable=1;overflow=hidden;whiteSpace=wrap;html=1;" vertex="1" parent="QdTI1uhQyMlmlqkuTwOz-125">
          <mxGeometry width="63.10713849748879" height="30" as="geometry">
            <mxRectangle width="63.10713849748879" height="30" as="alternateBounds" />
          </mxGeometry>
        </mxCell>
        <mxCell id="QdTI1uhQyMlmlqkuTwOz-127" value="_salary" style="shape=partialRectangle;connectable=0;fillColor=none;top=0;left=0;bottom=0;right=0;align=left;spacingLeft=6;overflow=hidden;whiteSpace=wrap;html=1;" vertex="1" parent="QdTI1uhQyMlmlqkuTwOz-125">
          <mxGeometry x="63.10713849748879" width="188.0428859165737" height="30" as="geometry">
            <mxRectangle width="188.0428859165737" height="30" as="alternateBounds" />
          </mxGeometry>
        </mxCell>
        <mxCell id="QdTI1uhQyMlmlqkuTwOz-128" value="DECIMAL" style="shape=partialRectangle;connectable=0;fillColor=none;top=0;left=0;bottom=0;right=0;align=left;spacingLeft=6;overflow=hidden;whiteSpace=wrap;html=1;" vertex="1" parent="QdTI1uhQyMlmlqkuTwOz-125">
          <mxGeometry x="251.1500244140625" width="99.20001220703125" height="30" as="geometry">
            <mxRectangle width="99.20001220703125" height="30" as="alternateBounds" />
          </mxGeometry>
        </mxCell>
        <mxCell id="QdTI1uhQyMlmlqkuTwOz-417" style="shape=tableRow;horizontal=0;startSize=0;swimlaneHead=0;swimlaneBody=0;fillColor=none;collapsible=0;dropTarget=0;points=[[0,0.5],[1,0.5]];portConstraint=eastwest;top=0;left=0;right=0;bottom=0;" vertex="1" parent="QdTI1uhQyMlmlqkuTwOz-79">
          <mxGeometry y="180" width="350.35003662109375" height="30" as="geometry" />
        </mxCell>
        <mxCell id="QdTI1uhQyMlmlqkuTwOz-418" value="FK" style="shape=partialRectangle;connectable=0;fillColor=none;top=0;left=0;bottom=0;right=0;editable=1;overflow=hidden;whiteSpace=wrap;html=1;" vertex="1" parent="QdTI1uhQyMlmlqkuTwOz-417">
          <mxGeometry width="63.10713849748879" height="30" as="geometry">
            <mxRectangle width="63.10713849748879" height="30" as="alternateBounds" />
          </mxGeometry>
        </mxCell>
        <mxCell id="QdTI1uhQyMlmlqkuTwOz-419" value="_station_id" style="shape=partialRectangle;connectable=0;fillColor=none;top=0;left=0;bottom=0;right=0;align=left;spacingLeft=6;overflow=hidden;whiteSpace=wrap;html=1;" vertex="1" parent="QdTI1uhQyMlmlqkuTwOz-417">
          <mxGeometry x="63.10713849748879" width="188.0428859165737" height="30" as="geometry">
            <mxRectangle width="188.0428859165737" height="30" as="alternateBounds" />
          </mxGeometry>
        </mxCell>
        <mxCell id="QdTI1uhQyMlmlqkuTwOz-420" value="UUID" style="shape=partialRectangle;connectable=0;fillColor=none;top=0;left=0;bottom=0;right=0;align=left;spacingLeft=6;overflow=hidden;whiteSpace=wrap;html=1;" vertex="1" parent="QdTI1uhQyMlmlqkuTwOz-417">
          <mxGeometry x="251.1500244140625" width="99.20001220703125" height="30" as="geometry">
            <mxRectangle width="99.20001220703125" height="30" as="alternateBounds" />
          </mxGeometry>
        </mxCell>
        <mxCell id="QdTI1uhQyMlmlqkuTwOz-154" value="ADDRESS" style="shape=table;startSize=30;container=1;collapsible=1;childLayout=tableLayout;fixedRows=1;rowLines=0;fontStyle=1;align=center;resizeLast=1;html=1;" vertex="1" parent="1">
          <mxGeometry x="63" y="-80" width="330" height="240" as="geometry" />
        </mxCell>
        <mxCell id="QdTI1uhQyMlmlqkuTwOz-155" value="" style="shape=tableRow;horizontal=0;startSize=0;swimlaneHead=0;swimlaneBody=0;fillColor=none;collapsible=0;dropTarget=0;points=[[0,0.5],[1,0.5]];portConstraint=eastwest;top=0;left=0;right=0;bottom=1;" vertex="1" parent="QdTI1uhQyMlmlqkuTwOz-154">
          <mxGeometry y="30" width="330" height="30" as="geometry" />
        </mxCell>
        <mxCell id="QdTI1uhQyMlmlqkuTwOz-156" value="PK" style="shape=partialRectangle;connectable=0;fillColor=none;top=0;left=0;bottom=0;right=0;fontStyle=1;overflow=hidden;whiteSpace=wrap;html=1;" vertex="1" parent="QdTI1uhQyMlmlqkuTwOz-155">
          <mxGeometry width="30" height="30" as="geometry">
            <mxRectangle width="30" height="30" as="alternateBounds" />
          </mxGeometry>
        </mxCell>
        <mxCell id="QdTI1uhQyMlmlqkuTwOz-157" value="_address_id" style="shape=partialRectangle;connectable=0;fillColor=none;top=0;left=0;bottom=0;right=0;align=left;spacingLeft=6;fontStyle=5;overflow=hidden;whiteSpace=wrap;html=1;" vertex="1" parent="QdTI1uhQyMlmlqkuTwOz-155">
          <mxGeometry x="30" width="150" height="30" as="geometry">
            <mxRectangle width="150" height="30" as="alternateBounds" />
          </mxGeometry>
        </mxCell>
        <mxCell id="QdTI1uhQyMlmlqkuTwOz-317" value="UUID" style="shape=partialRectangle;connectable=0;fillColor=none;top=0;left=0;bottom=0;right=0;align=left;spacingLeft=6;fontStyle=5;overflow=hidden;whiteSpace=wrap;html=1;" vertex="1" parent="QdTI1uhQyMlmlqkuTwOz-155">
          <mxGeometry x="180" width="150" height="30" as="geometry">
            <mxRectangle width="150" height="30" as="alternateBounds" />
          </mxGeometry>
        </mxCell>
        <mxCell id="QdTI1uhQyMlmlqkuTwOz-158" value="" style="shape=tableRow;horizontal=0;startSize=0;swimlaneHead=0;swimlaneBody=0;fillColor=none;collapsible=0;dropTarget=0;points=[[0,0.5],[1,0.5]];portConstraint=eastwest;top=0;left=0;right=0;bottom=0;" vertex="1" parent="QdTI1uhQyMlmlqkuTwOz-154">
          <mxGeometry y="60" width="330" height="30" as="geometry" />
        </mxCell>
        <mxCell id="QdTI1uhQyMlmlqkuTwOz-159" value="" style="shape=partialRectangle;connectable=0;fillColor=none;top=0;left=0;bottom=0;right=0;editable=1;overflow=hidden;whiteSpace=wrap;html=1;" vertex="1" parent="QdTI1uhQyMlmlqkuTwOz-158">
          <mxGeometry width="30" height="30" as="geometry">
            <mxRectangle width="30" height="30" as="alternateBounds" />
          </mxGeometry>
        </mxCell>
        <mxCell id="QdTI1uhQyMlmlqkuTwOz-160" value="_street" style="shape=partialRectangle;connectable=0;fillColor=none;top=0;left=0;bottom=0;right=0;align=left;spacingLeft=6;overflow=hidden;whiteSpace=wrap;html=1;" vertex="1" parent="QdTI1uhQyMlmlqkuTwOz-158">
          <mxGeometry x="30" width="150" height="30" as="geometry">
            <mxRectangle width="150" height="30" as="alternateBounds" />
          </mxGeometry>
        </mxCell>
        <mxCell id="QdTI1uhQyMlmlqkuTwOz-318" value="VARCHAR(200)" style="shape=partialRectangle;connectable=0;fillColor=none;top=0;left=0;bottom=0;right=0;align=left;spacingLeft=6;overflow=hidden;whiteSpace=wrap;html=1;" vertex="1" parent="QdTI1uhQyMlmlqkuTwOz-158">
          <mxGeometry x="180" width="150" height="30" as="geometry">
            <mxRectangle width="150" height="30" as="alternateBounds" />
          </mxGeometry>
        </mxCell>
        <mxCell id="QdTI1uhQyMlmlqkuTwOz-161" value="" style="shape=tableRow;horizontal=0;startSize=0;swimlaneHead=0;swimlaneBody=0;fillColor=none;collapsible=0;dropTarget=0;points=[[0,0.5],[1,0.5]];portConstraint=eastwest;top=0;left=0;right=0;bottom=0;" vertex="1" parent="QdTI1uhQyMlmlqkuTwOz-154">
          <mxGeometry y="90" width="330" height="30" as="geometry" />
        </mxCell>
        <mxCell id="QdTI1uhQyMlmlqkuTwOz-162" value="" style="shape=partialRectangle;connectable=0;fillColor=none;top=0;left=0;bottom=0;right=0;editable=1;overflow=hidden;whiteSpace=wrap;html=1;" vertex="1" parent="QdTI1uhQyMlmlqkuTwOz-161">
          <mxGeometry width="30" height="30" as="geometry">
            <mxRectangle width="30" height="30" as="alternateBounds" />
          </mxGeometry>
        </mxCell>
        <mxCell id="QdTI1uhQyMlmlqkuTwOz-163" value="_pincode" style="shape=partialRectangle;connectable=0;fillColor=none;top=0;left=0;bottom=0;right=0;align=left;spacingLeft=6;overflow=hidden;whiteSpace=wrap;html=1;" vertex="1" parent="QdTI1uhQyMlmlqkuTwOz-161">
          <mxGeometry x="30" width="150" height="30" as="geometry">
            <mxRectangle width="150" height="30" as="alternateBounds" />
          </mxGeometry>
        </mxCell>
        <mxCell id="QdTI1uhQyMlmlqkuTwOz-319" value="INT" style="shape=partialRectangle;connectable=0;fillColor=none;top=0;left=0;bottom=0;right=0;align=left;spacingLeft=6;overflow=hidden;whiteSpace=wrap;html=1;" vertex="1" parent="QdTI1uhQyMlmlqkuTwOz-161">
          <mxGeometry x="180" width="150" height="30" as="geometry">
            <mxRectangle width="150" height="30" as="alternateBounds" />
          </mxGeometry>
        </mxCell>
        <mxCell id="QdTI1uhQyMlmlqkuTwOz-164" value="" style="shape=tableRow;horizontal=0;startSize=0;swimlaneHead=0;swimlaneBody=0;fillColor=none;collapsible=0;dropTarget=0;points=[[0,0.5],[1,0.5]];portConstraint=eastwest;top=0;left=0;right=0;bottom=0;" vertex="1" parent="QdTI1uhQyMlmlqkuTwOz-154">
          <mxGeometry y="120" width="330" height="30" as="geometry" />
        </mxCell>
        <mxCell id="QdTI1uhQyMlmlqkuTwOz-165" value="" style="shape=partialRectangle;connectable=0;fillColor=none;top=0;left=0;bottom=0;right=0;editable=1;overflow=hidden;whiteSpace=wrap;html=1;" vertex="1" parent="QdTI1uhQyMlmlqkuTwOz-164">
          <mxGeometry width="30" height="30" as="geometry">
            <mxRectangle width="30" height="30" as="alternateBounds" />
          </mxGeometry>
        </mxCell>
        <mxCell id="QdTI1uhQyMlmlqkuTwOz-166" value="_city" style="shape=partialRectangle;connectable=0;fillColor=none;top=0;left=0;bottom=0;right=0;align=left;spacingLeft=6;overflow=hidden;whiteSpace=wrap;html=1;" vertex="1" parent="QdTI1uhQyMlmlqkuTwOz-164">
          <mxGeometry x="30" width="150" height="30" as="geometry">
            <mxRectangle width="150" height="30" as="alternateBounds" />
          </mxGeometry>
        </mxCell>
        <mxCell id="QdTI1uhQyMlmlqkuTwOz-320" value="VARCHAR(50)" style="shape=partialRectangle;connectable=0;fillColor=none;top=0;left=0;bottom=0;right=0;align=left;spacingLeft=6;overflow=hidden;whiteSpace=wrap;html=1;" vertex="1" parent="QdTI1uhQyMlmlqkuTwOz-164">
          <mxGeometry x="180" width="150" height="30" as="geometry">
            <mxRectangle width="150" height="30" as="alternateBounds" />
          </mxGeometry>
        </mxCell>
        <mxCell id="QdTI1uhQyMlmlqkuTwOz-167" style="shape=tableRow;horizontal=0;startSize=0;swimlaneHead=0;swimlaneBody=0;fillColor=none;collapsible=0;dropTarget=0;points=[[0,0.5],[1,0.5]];portConstraint=eastwest;top=0;left=0;right=0;bottom=0;" vertex="1" parent="QdTI1uhQyMlmlqkuTwOz-154">
          <mxGeometry y="150" width="330" height="30" as="geometry" />
        </mxCell>
        <mxCell id="QdTI1uhQyMlmlqkuTwOz-168" style="shape=partialRectangle;connectable=0;fillColor=none;top=0;left=0;bottom=0;right=0;editable=1;overflow=hidden;whiteSpace=wrap;html=1;" vertex="1" parent="QdTI1uhQyMlmlqkuTwOz-167">
          <mxGeometry width="30" height="30" as="geometry">
            <mxRectangle width="30" height="30" as="alternateBounds" />
          </mxGeometry>
        </mxCell>
        <mxCell id="QdTI1uhQyMlmlqkuTwOz-169" value="_state" style="shape=partialRectangle;connectable=0;fillColor=none;top=0;left=0;bottom=0;right=0;align=left;spacingLeft=6;overflow=hidden;whiteSpace=wrap;html=1;" vertex="1" parent="QdTI1uhQyMlmlqkuTwOz-167">
          <mxGeometry x="30" width="150" height="30" as="geometry">
            <mxRectangle width="150" height="30" as="alternateBounds" />
          </mxGeometry>
        </mxCell>
        <mxCell id="QdTI1uhQyMlmlqkuTwOz-321" value="ENUM(STATE)" style="shape=partialRectangle;connectable=0;fillColor=none;top=0;left=0;bottom=0;right=0;align=left;spacingLeft=6;overflow=hidden;whiteSpace=wrap;html=1;" vertex="1" parent="QdTI1uhQyMlmlqkuTwOz-167">
          <mxGeometry x="180" width="150" height="30" as="geometry">
            <mxRectangle width="150" height="30" as="alternateBounds" />
          </mxGeometry>
        </mxCell>
        <mxCell id="QdTI1uhQyMlmlqkuTwOz-311" style="shape=tableRow;horizontal=0;startSize=0;swimlaneHead=0;swimlaneBody=0;fillColor=none;collapsible=0;dropTarget=0;points=[[0,0.5],[1,0.5]];portConstraint=eastwest;top=0;left=0;right=0;bottom=0;" vertex="1" parent="QdTI1uhQyMlmlqkuTwOz-154">
          <mxGeometry y="180" width="330" height="30" as="geometry" />
        </mxCell>
        <mxCell id="QdTI1uhQyMlmlqkuTwOz-312" value="FK" style="shape=partialRectangle;connectable=0;fillColor=none;top=0;left=0;bottom=0;right=0;editable=1;overflow=hidden;whiteSpace=wrap;html=1;" vertex="1" parent="QdTI1uhQyMlmlqkuTwOz-311">
          <mxGeometry width="30" height="30" as="geometry">
            <mxRectangle width="30" height="30" as="alternateBounds" />
          </mxGeometry>
        </mxCell>
        <mxCell id="QdTI1uhQyMlmlqkuTwOz-313" value="_user_id" style="shape=partialRectangle;connectable=0;fillColor=none;top=0;left=0;bottom=0;right=0;align=left;spacingLeft=6;overflow=hidden;whiteSpace=wrap;html=1;" vertex="1" parent="QdTI1uhQyMlmlqkuTwOz-311">
          <mxGeometry x="30" width="150" height="30" as="geometry">
            <mxRectangle width="150" height="30" as="alternateBounds" />
          </mxGeometry>
        </mxCell>
        <mxCell id="QdTI1uhQyMlmlqkuTwOz-322" value="UUID" style="shape=partialRectangle;connectable=0;fillColor=none;top=0;left=0;bottom=0;right=0;align=left;spacingLeft=6;overflow=hidden;whiteSpace=wrap;html=1;" vertex="1" parent="QdTI1uhQyMlmlqkuTwOz-311">
          <mxGeometry x="180" width="150" height="30" as="geometry">
            <mxRectangle width="150" height="30" as="alternateBounds" />
          </mxGeometry>
        </mxCell>
        <mxCell id="QdTI1uhQyMlmlqkuTwOz-314" style="shape=tableRow;horizontal=0;startSize=0;swimlaneHead=0;swimlaneBody=0;fillColor=none;collapsible=0;dropTarget=0;points=[[0,0.5],[1,0.5]];portConstraint=eastwest;top=0;left=0;right=0;bottom=0;" vertex="1" parent="QdTI1uhQyMlmlqkuTwOz-154">
          <mxGeometry y="210" width="330" height="30" as="geometry" />
        </mxCell>
        <mxCell id="QdTI1uhQyMlmlqkuTwOz-315" value="FK" style="shape=partialRectangle;connectable=0;fillColor=none;top=0;left=0;bottom=0;right=0;editable=1;overflow=hidden;whiteSpace=wrap;html=1;" vertex="1" parent="QdTI1uhQyMlmlqkuTwOz-314">
          <mxGeometry width="30" height="30" as="geometry">
            <mxRectangle width="30" height="30" as="alternateBounds" />
          </mxGeometry>
        </mxCell>
        <mxCell id="QdTI1uhQyMlmlqkuTwOz-316" value="_station_id" style="shape=partialRectangle;connectable=0;fillColor=none;top=0;left=0;bottom=0;right=0;align=left;spacingLeft=6;overflow=hidden;whiteSpace=wrap;html=1;" vertex="1" parent="QdTI1uhQyMlmlqkuTwOz-314">
          <mxGeometry x="30" width="150" height="30" as="geometry">
            <mxRectangle width="150" height="30" as="alternateBounds" />
          </mxGeometry>
        </mxCell>
        <mxCell id="QdTI1uhQyMlmlqkuTwOz-323" value="UUID" style="shape=partialRectangle;connectable=0;fillColor=none;top=0;left=0;bottom=0;right=0;align=left;spacingLeft=6;overflow=hidden;whiteSpace=wrap;html=1;" vertex="1" parent="QdTI1uhQyMlmlqkuTwOz-314">
          <mxGeometry x="180" width="150" height="30" as="geometry">
            <mxRectangle width="150" height="30" as="alternateBounds" />
          </mxGeometry>
        </mxCell>
        <mxCell id="QdTI1uhQyMlmlqkuTwOz-177" value="ORDERS" style="shape=table;startSize=30;container=1;collapsible=1;childLayout=tableLayout;fixedRows=1;rowLines=0;fontStyle=1;align=center;resizeLast=1;html=1;" vertex="1" parent="1">
          <mxGeometry x="-342" y="-917" width="443.35485446068526" height="480" as="geometry" />
        </mxCell>
        <mxCell id="QdTI1uhQyMlmlqkuTwOz-178" value="" style="shape=tableRow;horizontal=0;startSize=0;swimlaneHead=0;swimlaneBody=0;fillColor=none;collapsible=0;dropTarget=0;points=[[0,0.5],[1,0.5]];portConstraint=eastwest;top=0;left=0;right=0;bottom=1;" vertex="1" parent="QdTI1uhQyMlmlqkuTwOz-177">
          <mxGeometry y="30" width="443.35485446068526" height="30" as="geometry" />
        </mxCell>
        <mxCell id="QdTI1uhQyMlmlqkuTwOz-179" value="PK" style="shape=partialRectangle;connectable=0;fillColor=none;top=0;left=0;bottom=0;right=0;fontStyle=1;overflow=hidden;whiteSpace=wrap;html=1;" vertex="1" parent="QdTI1uhQyMlmlqkuTwOz-178">
          <mxGeometry width="30" height="30" as="geometry">
            <mxRectangle width="30" height="30" as="alternateBounds" />
          </mxGeometry>
        </mxCell>
        <mxCell id="QdTI1uhQyMlmlqkuTwOz-180" value="_id" style="shape=partialRectangle;connectable=0;fillColor=none;top=0;left=0;bottom=0;right=0;align=left;spacingLeft=6;fontStyle=5;overflow=hidden;whiteSpace=wrap;html=1;" vertex="1" parent="QdTI1uhQyMlmlqkuTwOz-178">
          <mxGeometry x="30" width="171.80641223538265" height="30" as="geometry">
            <mxRectangle width="171.80641223538265" height="30" as="alternateBounds" />
          </mxGeometry>
        </mxCell>
        <mxCell id="QdTI1uhQyMlmlqkuTwOz-272" value="UUID" style="shape=partialRectangle;connectable=0;fillColor=none;top=0;left=0;bottom=0;right=0;align=left;spacingLeft=6;fontStyle=5;overflow=hidden;whiteSpace=wrap;html=1;" vertex="1" parent="QdTI1uhQyMlmlqkuTwOz-178">
          <mxGeometry x="201.80641223538265" width="241.5484422253026" height="30" as="geometry">
            <mxRectangle width="241.5484422253026" height="30" as="alternateBounds" />
          </mxGeometry>
        </mxCell>
        <mxCell id="QdTI1uhQyMlmlqkuTwOz-181" value="" style="shape=tableRow;horizontal=0;startSize=0;swimlaneHead=0;swimlaneBody=0;fillColor=none;collapsible=0;dropTarget=0;points=[[0,0.5],[1,0.5]];portConstraint=eastwest;top=0;left=0;right=0;bottom=0;" vertex="1" parent="QdTI1uhQyMlmlqkuTwOz-177">
          <mxGeometry y="60" width="443.35485446068526" height="30" as="geometry" />
        </mxCell>
        <mxCell id="QdTI1uhQyMlmlqkuTwOz-182" value="FK" style="shape=partialRectangle;connectable=0;fillColor=none;top=0;left=0;bottom=0;right=0;editable=1;overflow=hidden;whiteSpace=wrap;html=1;" vertex="1" parent="QdTI1uhQyMlmlqkuTwOz-181">
          <mxGeometry width="30" height="30" as="geometry">
            <mxRectangle width="30" height="30" as="alternateBounds" />
          </mxGeometry>
        </mxCell>
        <mxCell id="QdTI1uhQyMlmlqkuTwOz-183" value="_customer_id" style="shape=partialRectangle;connectable=0;fillColor=none;top=0;left=0;bottom=0;right=0;align=left;spacingLeft=6;overflow=hidden;whiteSpace=wrap;html=1;" vertex="1" parent="QdTI1uhQyMlmlqkuTwOz-181">
          <mxGeometry x="30" width="171.80641223538265" height="30" as="geometry">
            <mxRectangle width="171.80641223538265" height="30" as="alternateBounds" />
          </mxGeometry>
        </mxCell>
        <mxCell id="QdTI1uhQyMlmlqkuTwOz-273" value="UUID" style="shape=partialRectangle;connectable=0;fillColor=none;top=0;left=0;bottom=0;right=0;align=left;spacingLeft=6;overflow=hidden;whiteSpace=wrap;html=1;" vertex="1" parent="QdTI1uhQyMlmlqkuTwOz-181">
          <mxGeometry x="201.80641223538265" width="241.5484422253026" height="30" as="geometry">
            <mxRectangle width="241.5484422253026" height="30" as="alternateBounds" />
          </mxGeometry>
        </mxCell>
        <mxCell id="QdTI1uhQyMlmlqkuTwOz-184" value="" style="shape=tableRow;horizontal=0;startSize=0;swimlaneHead=0;swimlaneBody=0;fillColor=none;collapsible=0;dropTarget=0;points=[[0,0.5],[1,0.5]];portConstraint=eastwest;top=0;left=0;right=0;bottom=0;" vertex="1" parent="QdTI1uhQyMlmlqkuTwOz-177">
          <mxGeometry y="90" width="443.35485446068526" height="30" as="geometry" />
        </mxCell>
        <mxCell id="QdTI1uhQyMlmlqkuTwOz-185" value="FK" style="shape=partialRectangle;connectable=0;fillColor=none;top=0;left=0;bottom=0;right=0;editable=1;overflow=hidden;whiteSpace=wrap;html=1;" vertex="1" parent="QdTI1uhQyMlmlqkuTwOz-184">
          <mxGeometry width="30" height="30" as="geometry">
            <mxRectangle width="30" height="30" as="alternateBounds" />
          </mxGeometry>
        </mxCell>
        <mxCell id="QdTI1uhQyMlmlqkuTwOz-186" value="_product_id" style="shape=partialRectangle;connectable=0;fillColor=none;top=0;left=0;bottom=0;right=0;align=left;spacingLeft=6;overflow=hidden;whiteSpace=wrap;html=1;" vertex="1" parent="QdTI1uhQyMlmlqkuTwOz-184">
          <mxGeometry x="30" width="171.80641223538265" height="30" as="geometry">
            <mxRectangle width="171.80641223538265" height="30" as="alternateBounds" />
          </mxGeometry>
        </mxCell>
        <mxCell id="QdTI1uhQyMlmlqkuTwOz-274" value="UUID" style="shape=partialRectangle;connectable=0;fillColor=none;top=0;left=0;bottom=0;right=0;align=left;spacingLeft=6;overflow=hidden;whiteSpace=wrap;html=1;" vertex="1" parent="QdTI1uhQyMlmlqkuTwOz-184">
          <mxGeometry x="201.80641223538265" width="241.5484422253026" height="30" as="geometry">
            <mxRectangle width="241.5484422253026" height="30" as="alternateBounds" />
          </mxGeometry>
        </mxCell>
        <mxCell id="QdTI1uhQyMlmlqkuTwOz-324" style="shape=tableRow;horizontal=0;startSize=0;swimlaneHead=0;swimlaneBody=0;fillColor=none;collapsible=0;dropTarget=0;points=[[0,0.5],[1,0.5]];portConstraint=eastwest;top=0;left=0;right=0;bottom=0;" vertex="1" parent="QdTI1uhQyMlmlqkuTwOz-177">
          <mxGeometry y="120" width="443.35485446068526" height="30" as="geometry" />
        </mxCell>
        <mxCell id="QdTI1uhQyMlmlqkuTwOz-325" value="FK" style="shape=partialRectangle;connectable=0;fillColor=none;top=0;left=0;bottom=0;right=0;editable=1;overflow=hidden;whiteSpace=wrap;html=1;" vertex="1" parent="QdTI1uhQyMlmlqkuTwOz-324">
          <mxGeometry width="30" height="30" as="geometry">
            <mxRectangle width="30" height="30" as="alternateBounds" />
          </mxGeometry>
        </mxCell>
        <mxCell id="QdTI1uhQyMlmlqkuTwOz-326" value="_address_id" style="shape=partialRectangle;connectable=0;fillColor=none;top=0;left=0;bottom=0;right=0;align=left;spacingLeft=6;overflow=hidden;whiteSpace=wrap;html=1;" vertex="1" parent="QdTI1uhQyMlmlqkuTwOz-324">
          <mxGeometry x="30" width="171.80641223538265" height="30" as="geometry">
            <mxRectangle width="171.80641223538265" height="30" as="alternateBounds" />
          </mxGeometry>
        </mxCell>
        <mxCell id="QdTI1uhQyMlmlqkuTwOz-327" value="UUID" style="shape=partialRectangle;connectable=0;fillColor=none;top=0;left=0;bottom=0;right=0;align=left;spacingLeft=6;overflow=hidden;whiteSpace=wrap;html=1;" vertex="1" parent="QdTI1uhQyMlmlqkuTwOz-324">
          <mxGeometry x="201.80641223538265" width="241.5484422253026" height="30" as="geometry">
            <mxRectangle width="241.5484422253026" height="30" as="alternateBounds" />
          </mxGeometry>
        </mxCell>
        <mxCell id="QdTI1uhQyMlmlqkuTwOz-187" value="" style="shape=tableRow;horizontal=0;startSize=0;swimlaneHead=0;swimlaneBody=0;fillColor=none;collapsible=0;dropTarget=0;points=[[0,0.5],[1,0.5]];portConstraint=eastwest;top=0;left=0;right=0;bottom=0;" vertex="1" parent="QdTI1uhQyMlmlqkuTwOz-177">
          <mxGeometry y="150" width="443.35485446068526" height="30" as="geometry" />
        </mxCell>
        <mxCell id="QdTI1uhQyMlmlqkuTwOz-188" value="" style="shape=partialRectangle;connectable=0;fillColor=none;top=0;left=0;bottom=0;right=0;editable=1;overflow=hidden;whiteSpace=wrap;html=1;" vertex="1" parent="QdTI1uhQyMlmlqkuTwOz-187">
          <mxGeometry width="30" height="30" as="geometry">
            <mxRectangle width="30" height="30" as="alternateBounds" />
          </mxGeometry>
        </mxCell>
        <mxCell id="QdTI1uhQyMlmlqkuTwOz-189" value="_product_quantity" style="shape=partialRectangle;connectable=0;fillColor=none;top=0;left=0;bottom=0;right=0;align=left;spacingLeft=6;overflow=hidden;whiteSpace=wrap;html=1;" vertex="1" parent="QdTI1uhQyMlmlqkuTwOz-187">
          <mxGeometry x="30" width="171.80641223538265" height="30" as="geometry">
            <mxRectangle width="171.80641223538265" height="30" as="alternateBounds" />
          </mxGeometry>
        </mxCell>
        <mxCell id="QdTI1uhQyMlmlqkuTwOz-275" value="INT" style="shape=partialRectangle;connectable=0;fillColor=none;top=0;left=0;bottom=0;right=0;align=left;spacingLeft=6;overflow=hidden;whiteSpace=wrap;html=1;" vertex="1" parent="QdTI1uhQyMlmlqkuTwOz-187">
          <mxGeometry x="201.80641223538265" width="241.5484422253026" height="30" as="geometry">
            <mxRectangle width="241.5484422253026" height="30" as="alternateBounds" />
          </mxGeometry>
        </mxCell>
        <mxCell id="QdTI1uhQyMlmlqkuTwOz-231" value="" style="shape=tableRow;horizontal=0;startSize=0;swimlaneHead=0;swimlaneBody=0;fillColor=none;collapsible=0;dropTarget=0;points=[[0,0.5],[1,0.5]];portConstraint=eastwest;top=0;left=0;right=0;bottom=0;" vertex="1" parent="QdTI1uhQyMlmlqkuTwOz-177">
          <mxGeometry y="180" width="443.35485446068526" height="30" as="geometry" />
        </mxCell>
        <mxCell id="QdTI1uhQyMlmlqkuTwOz-232" value="" style="shape=partialRectangle;connectable=0;fillColor=none;top=0;left=0;bottom=0;right=0;editable=1;overflow=hidden;whiteSpace=wrap;html=1;" vertex="1" parent="QdTI1uhQyMlmlqkuTwOz-231">
          <mxGeometry width="30" height="30" as="geometry">
            <mxRectangle width="30" height="30" as="alternateBounds" />
          </mxGeometry>
        </mxCell>
        <mxCell id="QdTI1uhQyMlmlqkuTwOz-233" value="_order_placed_at" style="shape=partialRectangle;connectable=0;fillColor=none;top=0;left=0;bottom=0;right=0;align=left;spacingLeft=6;overflow=hidden;whiteSpace=wrap;html=1;" vertex="1" parent="QdTI1uhQyMlmlqkuTwOz-231">
          <mxGeometry x="30" width="171.80641223538265" height="30" as="geometry">
            <mxRectangle width="171.80641223538265" height="30" as="alternateBounds" />
          </mxGeometry>
        </mxCell>
        <mxCell id="QdTI1uhQyMlmlqkuTwOz-276" value="DATE" style="shape=partialRectangle;connectable=0;fillColor=none;top=0;left=0;bottom=0;right=0;align=left;spacingLeft=6;overflow=hidden;whiteSpace=wrap;html=1;" vertex="1" parent="QdTI1uhQyMlmlqkuTwOz-231">
          <mxGeometry x="201.80641223538265" width="241.5484422253026" height="30" as="geometry">
            <mxRectangle width="241.5484422253026" height="30" as="alternateBounds" />
          </mxGeometry>
        </mxCell>
        <mxCell id="QdTI1uhQyMlmlqkuTwOz-234" value="" style="shape=tableRow;horizontal=0;startSize=0;swimlaneHead=0;swimlaneBody=0;fillColor=none;collapsible=0;dropTarget=0;points=[[0,0.5],[1,0.5]];portConstraint=eastwest;top=0;left=0;right=0;bottom=0;" vertex="1" parent="QdTI1uhQyMlmlqkuTwOz-177">
          <mxGeometry y="210" width="443.35485446068526" height="30" as="geometry" />
        </mxCell>
        <mxCell id="QdTI1uhQyMlmlqkuTwOz-235" value="" style="shape=partialRectangle;connectable=0;fillColor=none;top=0;left=0;bottom=0;right=0;editable=1;overflow=hidden;whiteSpace=wrap;html=1;" vertex="1" parent="QdTI1uhQyMlmlqkuTwOz-234">
          <mxGeometry width="30" height="30" as="geometry">
            <mxRectangle width="30" height="30" as="alternateBounds" />
          </mxGeometry>
        </mxCell>
        <mxCell id="QdTI1uhQyMlmlqkuTwOz-236" value="_order_status" style="shape=partialRectangle;connectable=0;fillColor=none;top=0;left=0;bottom=0;right=0;align=left;spacingLeft=6;overflow=hidden;whiteSpace=wrap;html=1;" vertex="1" parent="QdTI1uhQyMlmlqkuTwOz-234">
          <mxGeometry x="30" width="171.80641223538265" height="30" as="geometry">
            <mxRectangle width="171.80641223538265" height="30" as="alternateBounds" />
          </mxGeometry>
        </mxCell>
        <mxCell id="QdTI1uhQyMlmlqkuTwOz-277" value="ENUM(SHIPPED,PLACED,DELIVERED)" style="shape=partialRectangle;connectable=0;fillColor=none;top=0;left=0;bottom=0;right=0;align=left;spacingLeft=6;overflow=hidden;whiteSpace=wrap;html=1;" vertex="1" parent="QdTI1uhQyMlmlqkuTwOz-234">
          <mxGeometry x="201.80641223538265" width="241.5484422253026" height="30" as="geometry">
            <mxRectangle width="241.5484422253026" height="30" as="alternateBounds" />
          </mxGeometry>
        </mxCell>
        <mxCell id="QdTI1uhQyMlmlqkuTwOz-237" value="" style="shape=tableRow;horizontal=0;startSize=0;swimlaneHead=0;swimlaneBody=0;fillColor=none;collapsible=0;dropTarget=0;points=[[0,0.5],[1,0.5]];portConstraint=eastwest;top=0;left=0;right=0;bottom=0;" vertex="1" parent="QdTI1uhQyMlmlqkuTwOz-177">
          <mxGeometry y="240" width="443.35485446068526" height="30" as="geometry" />
        </mxCell>
        <mxCell id="QdTI1uhQyMlmlqkuTwOz-238" value="FK" style="shape=partialRectangle;connectable=0;fillColor=none;top=0;left=0;bottom=0;right=0;editable=1;overflow=hidden;whiteSpace=wrap;html=1;" vertex="1" parent="QdTI1uhQyMlmlqkuTwOz-237">
          <mxGeometry width="30" height="30" as="geometry">
            <mxRectangle width="30" height="30" as="alternateBounds" />
          </mxGeometry>
        </mxCell>
        <mxCell id="QdTI1uhQyMlmlqkuTwOz-239" value="_order_reached_station" style="shape=partialRectangle;connectable=0;fillColor=none;top=0;left=0;bottom=0;right=0;align=left;spacingLeft=6;overflow=hidden;whiteSpace=wrap;html=1;" vertex="1" parent="QdTI1uhQyMlmlqkuTwOz-237">
          <mxGeometry x="30" width="171.80641223538265" height="30" as="geometry">
            <mxRectangle width="171.80641223538265" height="30" as="alternateBounds" />
          </mxGeometry>
        </mxCell>
        <mxCell id="QdTI1uhQyMlmlqkuTwOz-278" value="UUID" style="shape=partialRectangle;connectable=0;fillColor=none;top=0;left=0;bottom=0;right=0;align=left;spacingLeft=6;overflow=hidden;whiteSpace=wrap;html=1;" vertex="1" parent="QdTI1uhQyMlmlqkuTwOz-237">
          <mxGeometry x="201.80641223538265" width="241.5484422253026" height="30" as="geometry">
            <mxRectangle width="241.5484422253026" height="30" as="alternateBounds" />
          </mxGeometry>
        </mxCell>
        <mxCell id="QdTI1uhQyMlmlqkuTwOz-240" value="" style="shape=tableRow;horizontal=0;startSize=0;swimlaneHead=0;swimlaneBody=0;fillColor=none;collapsible=0;dropTarget=0;points=[[0,0.5],[1,0.5]];portConstraint=eastwest;top=0;left=0;right=0;bottom=0;" vertex="1" parent="QdTI1uhQyMlmlqkuTwOz-177">
          <mxGeometry y="270" width="443.35485446068526" height="30" as="geometry" />
        </mxCell>
        <mxCell id="QdTI1uhQyMlmlqkuTwOz-241" value="FK" style="shape=partialRectangle;connectable=0;fillColor=none;top=0;left=0;bottom=0;right=0;editable=1;overflow=hidden;whiteSpace=wrap;html=1;" vertex="1" parent="QdTI1uhQyMlmlqkuTwOz-240">
          <mxGeometry width="30" height="30" as="geometry">
            <mxRectangle width="30" height="30" as="alternateBounds" />
          </mxGeometry>
        </mxCell>
        <mxCell id="QdTI1uhQyMlmlqkuTwOz-242" value="_transport_id" style="shape=partialRectangle;connectable=0;fillColor=none;top=0;left=0;bottom=0;right=0;align=left;spacingLeft=6;overflow=hidden;whiteSpace=wrap;html=1;" vertex="1" parent="QdTI1uhQyMlmlqkuTwOz-240">
          <mxGeometry x="30" width="171.80641223538265" height="30" as="geometry">
            <mxRectangle width="171.80641223538265" height="30" as="alternateBounds" />
          </mxGeometry>
        </mxCell>
        <mxCell id="QdTI1uhQyMlmlqkuTwOz-279" value="UUID" style="shape=partialRectangle;connectable=0;fillColor=none;top=0;left=0;bottom=0;right=0;align=left;spacingLeft=6;overflow=hidden;whiteSpace=wrap;html=1;" vertex="1" parent="QdTI1uhQyMlmlqkuTwOz-240">
          <mxGeometry x="201.80641223538265" width="241.5484422253026" height="30" as="geometry">
            <mxRectangle width="241.5484422253026" height="30" as="alternateBounds" />
          </mxGeometry>
        </mxCell>
        <mxCell id="QdTI1uhQyMlmlqkuTwOz-243" value="" style="shape=tableRow;horizontal=0;startSize=0;swimlaneHead=0;swimlaneBody=0;fillColor=none;collapsible=0;dropTarget=0;points=[[0,0.5],[1,0.5]];portConstraint=eastwest;top=0;left=0;right=0;bottom=0;" vertex="1" parent="QdTI1uhQyMlmlqkuTwOz-177">
          <mxGeometry y="300" width="443.35485446068526" height="30" as="geometry" />
        </mxCell>
        <mxCell id="QdTI1uhQyMlmlqkuTwOz-244" value="" style="shape=partialRectangle;connectable=0;fillColor=none;top=0;left=0;bottom=0;right=0;editable=1;overflow=hidden;whiteSpace=wrap;html=1;" vertex="1" parent="QdTI1uhQyMlmlqkuTwOz-243">
          <mxGeometry width="30" height="30" as="geometry">
            <mxRectangle width="30" height="30" as="alternateBounds" />
          </mxGeometry>
        </mxCell>
        <mxCell id="QdTI1uhQyMlmlqkuTwOz-245" value="_expected_delivery_date" style="shape=partialRectangle;connectable=0;fillColor=none;top=0;left=0;bottom=0;right=0;align=left;spacingLeft=6;overflow=hidden;whiteSpace=wrap;html=1;" vertex="1" parent="QdTI1uhQyMlmlqkuTwOz-243">
          <mxGeometry x="30" width="171.80641223538265" height="30" as="geometry">
            <mxRectangle width="171.80641223538265" height="30" as="alternateBounds" />
          </mxGeometry>
        </mxCell>
        <mxCell id="QdTI1uhQyMlmlqkuTwOz-280" value="DATE" style="shape=partialRectangle;connectable=0;fillColor=none;top=0;left=0;bottom=0;right=0;align=left;spacingLeft=6;overflow=hidden;whiteSpace=wrap;html=1;" vertex="1" parent="QdTI1uhQyMlmlqkuTwOz-243">
          <mxGeometry x="201.80641223538265" width="241.5484422253026" height="30" as="geometry">
            <mxRectangle width="241.5484422253026" height="30" as="alternateBounds" />
          </mxGeometry>
        </mxCell>
        <mxCell id="QdTI1uhQyMlmlqkuTwOz-246" value="" style="shape=tableRow;horizontal=0;startSize=0;swimlaneHead=0;swimlaneBody=0;fillColor=none;collapsible=0;dropTarget=0;points=[[0,0.5],[1,0.5]];portConstraint=eastwest;top=0;left=0;right=0;bottom=0;" vertex="1" parent="QdTI1uhQyMlmlqkuTwOz-177">
          <mxGeometry y="330" width="443.35485446068526" height="30" as="geometry" />
        </mxCell>
        <mxCell id="QdTI1uhQyMlmlqkuTwOz-247" value="FK" style="shape=partialRectangle;connectable=0;fillColor=none;top=0;left=0;bottom=0;right=0;editable=1;overflow=hidden;whiteSpace=wrap;html=1;" vertex="1" parent="QdTI1uhQyMlmlqkuTwOz-246">
          <mxGeometry width="30" height="30" as="geometry">
            <mxRectangle width="30" height="30" as="alternateBounds" />
          </mxGeometry>
        </mxCell>
        <mxCell id="QdTI1uhQyMlmlqkuTwOz-248" value="_delivery_person" style="shape=partialRectangle;connectable=0;fillColor=none;top=0;left=0;bottom=0;right=0;align=left;spacingLeft=6;overflow=hidden;whiteSpace=wrap;html=1;" vertex="1" parent="QdTI1uhQyMlmlqkuTwOz-246">
          <mxGeometry x="30" width="171.80641223538265" height="30" as="geometry">
            <mxRectangle width="171.80641223538265" height="30" as="alternateBounds" />
          </mxGeometry>
        </mxCell>
        <mxCell id="QdTI1uhQyMlmlqkuTwOz-281" value="UUID" style="shape=partialRectangle;connectable=0;fillColor=none;top=0;left=0;bottom=0;right=0;align=left;spacingLeft=6;overflow=hidden;whiteSpace=wrap;html=1;" vertex="1" parent="QdTI1uhQyMlmlqkuTwOz-246">
          <mxGeometry x="201.80641223538265" width="241.5484422253026" height="30" as="geometry">
            <mxRectangle width="241.5484422253026" height="30" as="alternateBounds" />
          </mxGeometry>
        </mxCell>
        <mxCell id="QdTI1uhQyMlmlqkuTwOz-364" style="shape=tableRow;horizontal=0;startSize=0;swimlaneHead=0;swimlaneBody=0;fillColor=none;collapsible=0;dropTarget=0;points=[[0,0.5],[1,0.5]];portConstraint=eastwest;top=0;left=0;right=0;bottom=0;" vertex="1" parent="QdTI1uhQyMlmlqkuTwOz-177">
          <mxGeometry y="360" width="443.35485446068526" height="30" as="geometry" />
        </mxCell>
        <mxCell id="QdTI1uhQyMlmlqkuTwOz-365" style="shape=partialRectangle;connectable=0;fillColor=none;top=0;left=0;bottom=0;right=0;editable=1;overflow=hidden;whiteSpace=wrap;html=1;" vertex="1" parent="QdTI1uhQyMlmlqkuTwOz-364">
          <mxGeometry width="30" height="30" as="geometry">
            <mxRectangle width="30" height="30" as="alternateBounds" />
          </mxGeometry>
        </mxCell>
        <mxCell id="QdTI1uhQyMlmlqkuTwOz-366" value="_delivery_pickup_time" style="shape=partialRectangle;connectable=0;fillColor=none;top=0;left=0;bottom=0;right=0;align=left;spacingLeft=6;overflow=hidden;whiteSpace=wrap;html=1;" vertex="1" parent="QdTI1uhQyMlmlqkuTwOz-364">
          <mxGeometry x="30" width="171.80641223538265" height="30" as="geometry">
            <mxRectangle width="171.80641223538265" height="30" as="alternateBounds" />
          </mxGeometry>
        </mxCell>
        <mxCell id="QdTI1uhQyMlmlqkuTwOz-367" value="DATE" style="shape=partialRectangle;connectable=0;fillColor=none;top=0;left=0;bottom=0;right=0;align=left;spacingLeft=6;overflow=hidden;whiteSpace=wrap;html=1;" vertex="1" parent="QdTI1uhQyMlmlqkuTwOz-364">
          <mxGeometry x="201.80641223538265" width="241.5484422253026" height="30" as="geometry">
            <mxRectangle width="241.5484422253026" height="30" as="alternateBounds" />
          </mxGeometry>
        </mxCell>
        <mxCell id="QdTI1uhQyMlmlqkuTwOz-328" style="shape=tableRow;horizontal=0;startSize=0;swimlaneHead=0;swimlaneBody=0;fillColor=none;collapsible=0;dropTarget=0;points=[[0,0.5],[1,0.5]];portConstraint=eastwest;top=0;left=0;right=0;bottom=0;" vertex="1" parent="QdTI1uhQyMlmlqkuTwOz-177">
          <mxGeometry y="390" width="443.35485446068526" height="30" as="geometry" />
        </mxCell>
        <mxCell id="QdTI1uhQyMlmlqkuTwOz-329" value="FK" style="shape=partialRectangle;connectable=0;fillColor=none;top=0;left=0;bottom=0;right=0;editable=1;overflow=hidden;whiteSpace=wrap;html=1;" vertex="1" parent="QdTI1uhQyMlmlqkuTwOz-328">
          <mxGeometry width="30" height="30" as="geometry">
            <mxRectangle width="30" height="30" as="alternateBounds" />
          </mxGeometry>
        </mxCell>
        <mxCell id="QdTI1uhQyMlmlqkuTwOz-330" value="_delivery_area_code" style="shape=partialRectangle;connectable=0;fillColor=none;top=0;left=0;bottom=0;right=0;align=left;spacingLeft=6;overflow=hidden;whiteSpace=wrap;html=1;" vertex="1" parent="QdTI1uhQyMlmlqkuTwOz-328">
          <mxGeometry x="30" width="171.80641223538265" height="30" as="geometry">
            <mxRectangle width="171.80641223538265" height="30" as="alternateBounds" />
          </mxGeometry>
        </mxCell>
        <mxCell id="QdTI1uhQyMlmlqkuTwOz-331" value="INT" style="shape=partialRectangle;connectable=0;fillColor=none;top=0;left=0;bottom=0;right=0;align=left;spacingLeft=6;overflow=hidden;whiteSpace=wrap;html=1;" vertex="1" parent="QdTI1uhQyMlmlqkuTwOz-328">
          <mxGeometry x="201.80641223538265" width="241.5484422253026" height="30" as="geometry">
            <mxRectangle width="241.5484422253026" height="30" as="alternateBounds" />
          </mxGeometry>
        </mxCell>
        <mxCell id="QdTI1uhQyMlmlqkuTwOz-269" value="" style="shape=tableRow;horizontal=0;startSize=0;swimlaneHead=0;swimlaneBody=0;fillColor=none;collapsible=0;dropTarget=0;points=[[0,0.5],[1,0.5]];portConstraint=eastwest;top=0;left=0;right=0;bottom=0;" vertex="1" parent="QdTI1uhQyMlmlqkuTwOz-177">
          <mxGeometry y="420" width="443.35485446068526" height="30" as="geometry" />
        </mxCell>
        <mxCell id="QdTI1uhQyMlmlqkuTwOz-270" value="" style="shape=partialRectangle;connectable=0;fillColor=none;top=0;left=0;bottom=0;right=0;editable=1;overflow=hidden;whiteSpace=wrap;html=1;" vertex="1" parent="QdTI1uhQyMlmlqkuTwOz-269">
          <mxGeometry width="30" height="30" as="geometry">
            <mxRectangle width="30" height="30" as="alternateBounds" />
          </mxGeometry>
        </mxCell>
        <mxCell id="QdTI1uhQyMlmlqkuTwOz-271" value="_delivery_varification_code" style="shape=partialRectangle;connectable=0;fillColor=none;top=0;left=0;bottom=0;right=0;align=left;spacingLeft=6;overflow=hidden;whiteSpace=wrap;html=1;" vertex="1" parent="QdTI1uhQyMlmlqkuTwOz-269">
          <mxGeometry x="30" width="171.80641223538265" height="30" as="geometry">
            <mxRectangle width="171.80641223538265" height="30" as="alternateBounds" />
          </mxGeometry>
        </mxCell>
        <mxCell id="QdTI1uhQyMlmlqkuTwOz-282" value="INT" style="shape=partialRectangle;connectable=0;fillColor=none;top=0;left=0;bottom=0;right=0;align=left;spacingLeft=6;overflow=hidden;whiteSpace=wrap;html=1;" vertex="1" parent="QdTI1uhQyMlmlqkuTwOz-269">
          <mxGeometry x="201.80641223538265" width="241.5484422253026" height="30" as="geometry">
            <mxRectangle width="241.5484422253026" height="30" as="alternateBounds" />
          </mxGeometry>
        </mxCell>
        <mxCell id="QdTI1uhQyMlmlqkuTwOz-283" value="" style="shape=tableRow;horizontal=0;startSize=0;swimlaneHead=0;swimlaneBody=0;fillColor=none;collapsible=0;dropTarget=0;points=[[0,0.5],[1,0.5]];portConstraint=eastwest;top=0;left=0;right=0;bottom=0;" vertex="1" parent="QdTI1uhQyMlmlqkuTwOz-177">
          <mxGeometry y="450" width="443.35485446068526" height="30" as="geometry" />
        </mxCell>
        <mxCell id="QdTI1uhQyMlmlqkuTwOz-284" value="" style="shape=partialRectangle;connectable=0;fillColor=none;top=0;left=0;bottom=0;right=0;editable=1;overflow=hidden;whiteSpace=wrap;html=1;" vertex="1" parent="QdTI1uhQyMlmlqkuTwOz-283">
          <mxGeometry width="30" height="30" as="geometry">
            <mxRectangle width="30" height="30" as="alternateBounds" />
          </mxGeometry>
        </mxCell>
        <mxCell id="QdTI1uhQyMlmlqkuTwOz-285" value="_delivered_on" style="shape=partialRectangle;connectable=0;fillColor=none;top=0;left=0;bottom=0;right=0;align=left;spacingLeft=6;overflow=hidden;whiteSpace=wrap;html=1;" vertex="1" parent="QdTI1uhQyMlmlqkuTwOz-283">
          <mxGeometry x="30" width="171.80641223538265" height="30" as="geometry">
            <mxRectangle width="171.80641223538265" height="30" as="alternateBounds" />
          </mxGeometry>
        </mxCell>
        <mxCell id="QdTI1uhQyMlmlqkuTwOz-286" value="DATE" style="shape=partialRectangle;connectable=0;fillColor=none;top=0;left=0;bottom=0;right=0;align=left;spacingLeft=6;overflow=hidden;whiteSpace=wrap;html=1;" vertex="1" parent="QdTI1uhQyMlmlqkuTwOz-283">
          <mxGeometry x="201.80641223538265" width="241.5484422253026" height="30" as="geometry">
            <mxRectangle width="241.5484422253026" height="30" as="alternateBounds" />
          </mxGeometry>
        </mxCell>
        <mxCell id="QdTI1uhQyMlmlqkuTwOz-292" value="STATION" style="shape=table;startSize=30;container=1;collapsible=1;childLayout=tableLayout;fixedRows=1;rowLines=0;fontStyle=1;align=center;resizeLast=1;html=1;" vertex="1" parent="1">
          <mxGeometry x="-508" y="300" width="357.0000232514878" height="120" as="geometry" />
        </mxCell>
        <mxCell id="QdTI1uhQyMlmlqkuTwOz-293" value="" style="shape=tableRow;horizontal=0;startSize=0;swimlaneHead=0;swimlaneBody=0;fillColor=none;collapsible=0;dropTarget=0;points=[[0,0.5],[1,0.5]];portConstraint=eastwest;top=0;left=0;right=0;bottom=1;" vertex="1" parent="QdTI1uhQyMlmlqkuTwOz-292">
          <mxGeometry y="30" width="357.0000232514878" height="30" as="geometry" />
        </mxCell>
        <mxCell id="QdTI1uhQyMlmlqkuTwOz-294" value="PK" style="shape=partialRectangle;connectable=0;fillColor=none;top=0;left=0;bottom=0;right=0;fontStyle=1;overflow=hidden;whiteSpace=wrap;html=1;" vertex="1" parent="QdTI1uhQyMlmlqkuTwOz-293">
          <mxGeometry width="30" height="30" as="geometry">
            <mxRectangle width="30" height="30" as="alternateBounds" />
          </mxGeometry>
        </mxCell>
        <mxCell id="QdTI1uhQyMlmlqkuTwOz-295" value="_id" style="shape=partialRectangle;connectable=0;fillColor=none;top=0;left=0;bottom=0;right=0;align=left;spacingLeft=6;fontStyle=5;overflow=hidden;whiteSpace=wrap;html=1;" vertex="1" parent="QdTI1uhQyMlmlqkuTwOz-293">
          <mxGeometry x="30" width="150" height="30" as="geometry">
            <mxRectangle width="150" height="30" as="alternateBounds" />
          </mxGeometry>
        </mxCell>
        <mxCell id="QdTI1uhQyMlmlqkuTwOz-335" value="UUID" style="shape=partialRectangle;connectable=0;fillColor=none;top=0;left=0;bottom=0;right=0;align=left;spacingLeft=6;fontStyle=5;overflow=hidden;whiteSpace=wrap;html=1;" vertex="1" parent="QdTI1uhQyMlmlqkuTwOz-293">
          <mxGeometry x="180" width="177.0000232514878" height="30" as="geometry">
            <mxRectangle width="177.0000232514878" height="30" as="alternateBounds" />
          </mxGeometry>
        </mxCell>
        <mxCell id="QdTI1uhQyMlmlqkuTwOz-296" value="" style="shape=tableRow;horizontal=0;startSize=0;swimlaneHead=0;swimlaneBody=0;fillColor=none;collapsible=0;dropTarget=0;points=[[0,0.5],[1,0.5]];portConstraint=eastwest;top=0;left=0;right=0;bottom=0;" vertex="1" parent="QdTI1uhQyMlmlqkuTwOz-292">
          <mxGeometry y="60" width="357.0000232514878" height="30" as="geometry" />
        </mxCell>
        <mxCell id="QdTI1uhQyMlmlqkuTwOz-297" value="" style="shape=partialRectangle;connectable=0;fillColor=none;top=0;left=0;bottom=0;right=0;editable=1;overflow=hidden;whiteSpace=wrap;html=1;" vertex="1" parent="QdTI1uhQyMlmlqkuTwOz-296">
          <mxGeometry width="30" height="30" as="geometry">
            <mxRectangle width="30" height="30" as="alternateBounds" />
          </mxGeometry>
        </mxCell>
        <mxCell id="QdTI1uhQyMlmlqkuTwOz-298" value="_station_name" style="shape=partialRectangle;connectable=0;fillColor=none;top=0;left=0;bottom=0;right=0;align=left;spacingLeft=6;overflow=hidden;whiteSpace=wrap;html=1;" vertex="1" parent="QdTI1uhQyMlmlqkuTwOz-296">
          <mxGeometry x="30" width="150" height="30" as="geometry">
            <mxRectangle width="150" height="30" as="alternateBounds" />
          </mxGeometry>
        </mxCell>
        <mxCell id="QdTI1uhQyMlmlqkuTwOz-336" value="VARCHAR(100)" style="shape=partialRectangle;connectable=0;fillColor=none;top=0;left=0;bottom=0;right=0;align=left;spacingLeft=6;overflow=hidden;whiteSpace=wrap;html=1;" vertex="1" parent="QdTI1uhQyMlmlqkuTwOz-296">
          <mxGeometry x="180" width="177.0000232514878" height="30" as="geometry">
            <mxRectangle width="177.0000232514878" height="30" as="alternateBounds" />
          </mxGeometry>
        </mxCell>
        <mxCell id="QdTI1uhQyMlmlqkuTwOz-299" value="" style="shape=tableRow;horizontal=0;startSize=0;swimlaneHead=0;swimlaneBody=0;fillColor=none;collapsible=0;dropTarget=0;points=[[0,0.5],[1,0.5]];portConstraint=eastwest;top=0;left=0;right=0;bottom=0;" vertex="1" parent="QdTI1uhQyMlmlqkuTwOz-292">
          <mxGeometry y="90" width="357.0000232514878" height="30" as="geometry" />
        </mxCell>
        <mxCell id="QdTI1uhQyMlmlqkuTwOz-300" value="FK" style="shape=partialRectangle;connectable=0;fillColor=none;top=0;left=0;bottom=0;right=0;editable=1;overflow=hidden;whiteSpace=wrap;html=1;" vertex="1" parent="QdTI1uhQyMlmlqkuTwOz-299">
          <mxGeometry width="30" height="30" as="geometry">
            <mxRectangle width="30" height="30" as="alternateBounds" />
          </mxGeometry>
        </mxCell>
        <mxCell id="QdTI1uhQyMlmlqkuTwOz-301" value="_address_id" style="shape=partialRectangle;connectable=0;fillColor=none;top=0;left=0;bottom=0;right=0;align=left;spacingLeft=6;overflow=hidden;whiteSpace=wrap;html=1;" vertex="1" parent="QdTI1uhQyMlmlqkuTwOz-299">
          <mxGeometry x="30" width="150" height="30" as="geometry">
            <mxRectangle width="150" height="30" as="alternateBounds" />
          </mxGeometry>
        </mxCell>
        <mxCell id="QdTI1uhQyMlmlqkuTwOz-337" value="VARCHAR(200)" style="shape=partialRectangle;connectable=0;fillColor=none;top=0;left=0;bottom=0;right=0;align=left;spacingLeft=6;overflow=hidden;whiteSpace=wrap;html=1;" vertex="1" parent="QdTI1uhQyMlmlqkuTwOz-299">
          <mxGeometry x="180" width="177.0000232514878" height="30" as="geometry">
            <mxRectangle width="177.0000232514878" height="30" as="alternateBounds" />
          </mxGeometry>
        </mxCell>
        <mxCell id="QdTI1uhQyMlmlqkuTwOz-347" value="TRANSPORT" style="shape=table;startSize=30;container=1;collapsible=1;childLayout=tableLayout;fixedRows=1;rowLines=0;fontStyle=1;align=center;resizeLast=1;html=1;" vertex="1" parent="1">
          <mxGeometry x="170" y="685" width="330" height="150" as="geometry" />
        </mxCell>
        <mxCell id="QdTI1uhQyMlmlqkuTwOz-348" value="" style="shape=tableRow;horizontal=0;startSize=0;swimlaneHead=0;swimlaneBody=0;fillColor=none;collapsible=0;dropTarget=0;points=[[0,0.5],[1,0.5]];portConstraint=eastwest;top=0;left=0;right=0;bottom=1;" vertex="1" parent="QdTI1uhQyMlmlqkuTwOz-347">
          <mxGeometry y="30" width="330" height="30" as="geometry" />
        </mxCell>
        <mxCell id="QdTI1uhQyMlmlqkuTwOz-349" value="PK" style="shape=partialRectangle;connectable=0;fillColor=none;top=0;left=0;bottom=0;right=0;fontStyle=1;overflow=hidden;whiteSpace=wrap;html=1;" vertex="1" parent="QdTI1uhQyMlmlqkuTwOz-348">
          <mxGeometry width="30" height="30" as="geometry">
            <mxRectangle width="30" height="30" as="alternateBounds" />
          </mxGeometry>
        </mxCell>
        <mxCell id="QdTI1uhQyMlmlqkuTwOz-350" value="_id" style="shape=partialRectangle;connectable=0;fillColor=none;top=0;left=0;bottom=0;right=0;align=left;spacingLeft=6;fontStyle=5;overflow=hidden;whiteSpace=wrap;html=1;" vertex="1" parent="QdTI1uhQyMlmlqkuTwOz-348">
          <mxGeometry x="30" width="150" height="30" as="geometry">
            <mxRectangle width="150" height="30" as="alternateBounds" />
          </mxGeometry>
        </mxCell>
        <mxCell id="QdTI1uhQyMlmlqkuTwOz-368" value="UUID" style="shape=partialRectangle;connectable=0;fillColor=none;top=0;left=0;bottom=0;right=0;align=left;spacingLeft=6;fontStyle=5;overflow=hidden;whiteSpace=wrap;html=1;" vertex="1" parent="QdTI1uhQyMlmlqkuTwOz-348">
          <mxGeometry x="180" width="150" height="30" as="geometry">
            <mxRectangle width="150" height="30" as="alternateBounds" />
          </mxGeometry>
        </mxCell>
        <mxCell id="QdTI1uhQyMlmlqkuTwOz-351" value="" style="shape=tableRow;horizontal=0;startSize=0;swimlaneHead=0;swimlaneBody=0;fillColor=none;collapsible=0;dropTarget=0;points=[[0,0.5],[1,0.5]];portConstraint=eastwest;top=0;left=0;right=0;bottom=0;" vertex="1" parent="QdTI1uhQyMlmlqkuTwOz-347">
          <mxGeometry y="60" width="330" height="30" as="geometry" />
        </mxCell>
        <mxCell id="QdTI1uhQyMlmlqkuTwOz-352" value="" style="shape=partialRectangle;connectable=0;fillColor=none;top=0;left=0;bottom=0;right=0;editable=1;overflow=hidden;whiteSpace=wrap;html=1;" vertex="1" parent="QdTI1uhQyMlmlqkuTwOz-351">
          <mxGeometry width="30" height="30" as="geometry">
            <mxRectangle width="30" height="30" as="alternateBounds" />
          </mxGeometry>
        </mxCell>
        <mxCell id="QdTI1uhQyMlmlqkuTwOz-353" value="_transport_name" style="shape=partialRectangle;connectable=0;fillColor=none;top=0;left=0;bottom=0;right=0;align=left;spacingLeft=6;overflow=hidden;whiteSpace=wrap;html=1;" vertex="1" parent="QdTI1uhQyMlmlqkuTwOz-351">
          <mxGeometry x="30" width="150" height="30" as="geometry">
            <mxRectangle width="150" height="30" as="alternateBounds" />
          </mxGeometry>
        </mxCell>
        <mxCell id="QdTI1uhQyMlmlqkuTwOz-369" value="VARCHAR(100)" style="shape=partialRectangle;connectable=0;fillColor=none;top=0;left=0;bottom=0;right=0;align=left;spacingLeft=6;overflow=hidden;whiteSpace=wrap;html=1;" vertex="1" parent="QdTI1uhQyMlmlqkuTwOz-351">
          <mxGeometry x="180" width="150" height="30" as="geometry">
            <mxRectangle width="150" height="30" as="alternateBounds" />
          </mxGeometry>
        </mxCell>
        <mxCell id="QdTI1uhQyMlmlqkuTwOz-354" value="" style="shape=tableRow;horizontal=0;startSize=0;swimlaneHead=0;swimlaneBody=0;fillColor=none;collapsible=0;dropTarget=0;points=[[0,0.5],[1,0.5]];portConstraint=eastwest;top=0;left=0;right=0;bottom=0;" vertex="1" parent="QdTI1uhQyMlmlqkuTwOz-347">
          <mxGeometry y="90" width="330" height="30" as="geometry" />
        </mxCell>
        <mxCell id="QdTI1uhQyMlmlqkuTwOz-355" value="FK" style="shape=partialRectangle;connectable=0;fillColor=none;top=0;left=0;bottom=0;right=0;editable=1;overflow=hidden;whiteSpace=wrap;html=1;" vertex="1" parent="QdTI1uhQyMlmlqkuTwOz-354">
          <mxGeometry width="30" height="30" as="geometry">
            <mxRectangle width="30" height="30" as="alternateBounds" />
          </mxGeometry>
        </mxCell>
        <mxCell id="QdTI1uhQyMlmlqkuTwOz-356" value="_source_station_id" style="shape=partialRectangle;connectable=0;fillColor=none;top=0;left=0;bottom=0;right=0;align=left;spacingLeft=6;overflow=hidden;whiteSpace=wrap;html=1;" vertex="1" parent="QdTI1uhQyMlmlqkuTwOz-354">
          <mxGeometry x="30" width="150" height="30" as="geometry">
            <mxRectangle width="150" height="30" as="alternateBounds" />
          </mxGeometry>
        </mxCell>
        <mxCell id="QdTI1uhQyMlmlqkuTwOz-370" value="UUID" style="shape=partialRectangle;connectable=0;fillColor=none;top=0;left=0;bottom=0;right=0;align=left;spacingLeft=6;overflow=hidden;whiteSpace=wrap;html=1;" vertex="1" parent="QdTI1uhQyMlmlqkuTwOz-354">
          <mxGeometry x="180" width="150" height="30" as="geometry">
            <mxRectangle width="150" height="30" as="alternateBounds" />
          </mxGeometry>
        </mxCell>
        <mxCell id="QdTI1uhQyMlmlqkuTwOz-357" value="" style="shape=tableRow;horizontal=0;startSize=0;swimlaneHead=0;swimlaneBody=0;fillColor=none;collapsible=0;dropTarget=0;points=[[0,0.5],[1,0.5]];portConstraint=eastwest;top=0;left=0;right=0;bottom=0;" vertex="1" parent="QdTI1uhQyMlmlqkuTwOz-347">
          <mxGeometry y="120" width="330" height="30" as="geometry" />
        </mxCell>
        <mxCell id="QdTI1uhQyMlmlqkuTwOz-358" value="FK" style="shape=partialRectangle;connectable=0;fillColor=none;top=0;left=0;bottom=0;right=0;editable=1;overflow=hidden;whiteSpace=wrap;html=1;" vertex="1" parent="QdTI1uhQyMlmlqkuTwOz-357">
          <mxGeometry width="30" height="30" as="geometry">
            <mxRectangle width="30" height="30" as="alternateBounds" />
          </mxGeometry>
        </mxCell>
        <mxCell id="QdTI1uhQyMlmlqkuTwOz-359" value="_destination_station_id" style="shape=partialRectangle;connectable=0;fillColor=none;top=0;left=0;bottom=0;right=0;align=left;spacingLeft=6;overflow=hidden;whiteSpace=wrap;html=1;" vertex="1" parent="QdTI1uhQyMlmlqkuTwOz-357">
          <mxGeometry x="30" width="150" height="30" as="geometry">
            <mxRectangle width="150" height="30" as="alternateBounds" />
          </mxGeometry>
        </mxCell>
        <mxCell id="QdTI1uhQyMlmlqkuTwOz-371" value="UUID" style="shape=partialRectangle;connectable=0;fillColor=none;top=0;left=0;bottom=0;right=0;align=left;spacingLeft=6;overflow=hidden;whiteSpace=wrap;html=1;" vertex="1" parent="QdTI1uhQyMlmlqkuTwOz-357">
          <mxGeometry x="180" width="150" height="30" as="geometry">
            <mxRectangle width="150" height="30" as="alternateBounds" />
          </mxGeometry>
        </mxCell>
        <mxCell id="QdTI1uhQyMlmlqkuTwOz-372" value="SALARY_PAYMENT" style="shape=table;startSize=30;container=1;collapsible=1;childLayout=tableLayout;fixedRows=1;rowLines=0;fontStyle=1;align=center;resizeLast=1;html=1;" vertex="1" parent="1">
          <mxGeometry x="-1403" y="461" width="330" height="210" as="geometry" />
        </mxCell>
        <mxCell id="QdTI1uhQyMlmlqkuTwOz-373" value="" style="shape=tableRow;horizontal=0;startSize=0;swimlaneHead=0;swimlaneBody=0;fillColor=none;collapsible=0;dropTarget=0;points=[[0,0.5],[1,0.5]];portConstraint=eastwest;top=0;left=0;right=0;bottom=1;" vertex="1" parent="QdTI1uhQyMlmlqkuTwOz-372">
          <mxGeometry y="30" width="330" height="30" as="geometry" />
        </mxCell>
        <mxCell id="QdTI1uhQyMlmlqkuTwOz-374" value="PK" style="shape=partialRectangle;connectable=0;fillColor=none;top=0;left=0;bottom=0;right=0;fontStyle=1;overflow=hidden;whiteSpace=wrap;html=1;" vertex="1" parent="QdTI1uhQyMlmlqkuTwOz-373">
          <mxGeometry width="30" height="30" as="geometry">
            <mxRectangle width="30" height="30" as="alternateBounds" />
          </mxGeometry>
        </mxCell>
        <mxCell id="QdTI1uhQyMlmlqkuTwOz-375" value="id" style="shape=partialRectangle;connectable=0;fillColor=none;top=0;left=0;bottom=0;right=0;align=left;spacingLeft=6;fontStyle=5;overflow=hidden;whiteSpace=wrap;html=1;" vertex="1" parent="QdTI1uhQyMlmlqkuTwOz-373">
          <mxGeometry x="30" width="150" height="30" as="geometry">
            <mxRectangle width="150" height="30" as="alternateBounds" />
          </mxGeometry>
        </mxCell>
        <mxCell id="QdTI1uhQyMlmlqkuTwOz-391" value="UUID" style="shape=partialRectangle;connectable=0;fillColor=none;top=0;left=0;bottom=0;right=0;align=left;spacingLeft=6;fontStyle=5;overflow=hidden;whiteSpace=wrap;html=1;" vertex="1" parent="QdTI1uhQyMlmlqkuTwOz-373">
          <mxGeometry x="180" width="150" height="30" as="geometry">
            <mxRectangle width="150" height="30" as="alternateBounds" />
          </mxGeometry>
        </mxCell>
        <mxCell id="QdTI1uhQyMlmlqkuTwOz-376" value="" style="shape=tableRow;horizontal=0;startSize=0;swimlaneHead=0;swimlaneBody=0;fillColor=none;collapsible=0;dropTarget=0;points=[[0,0.5],[1,0.5]];portConstraint=eastwest;top=0;left=0;right=0;bottom=0;" vertex="1" parent="QdTI1uhQyMlmlqkuTwOz-372">
          <mxGeometry y="60" width="330" height="30" as="geometry" />
        </mxCell>
        <mxCell id="QdTI1uhQyMlmlqkuTwOz-377" value="" style="shape=partialRectangle;connectable=0;fillColor=none;top=0;left=0;bottom=0;right=0;editable=1;overflow=hidden;whiteSpace=wrap;html=1;" vertex="1" parent="QdTI1uhQyMlmlqkuTwOz-376">
          <mxGeometry width="30" height="30" as="geometry">
            <mxRectangle width="30" height="30" as="alternateBounds" />
          </mxGeometry>
        </mxCell>
        <mxCell id="QdTI1uhQyMlmlqkuTwOz-378" value="_first_name" style="shape=partialRectangle;connectable=0;fillColor=none;top=0;left=0;bottom=0;right=0;align=left;spacingLeft=6;overflow=hidden;whiteSpace=wrap;html=1;" vertex="1" parent="QdTI1uhQyMlmlqkuTwOz-376">
          <mxGeometry x="30" width="150" height="30" as="geometry">
            <mxRectangle width="150" height="30" as="alternateBounds" />
          </mxGeometry>
        </mxCell>
        <mxCell id="QdTI1uhQyMlmlqkuTwOz-392" value="VARCHAR(20)" style="shape=partialRectangle;connectable=0;fillColor=none;top=0;left=0;bottom=0;right=0;align=left;spacingLeft=6;overflow=hidden;whiteSpace=wrap;html=1;" vertex="1" parent="QdTI1uhQyMlmlqkuTwOz-376">
          <mxGeometry x="180" width="150" height="30" as="geometry">
            <mxRectangle width="150" height="30" as="alternateBounds" />
          </mxGeometry>
        </mxCell>
        <mxCell id="QdTI1uhQyMlmlqkuTwOz-379" value="" style="shape=tableRow;horizontal=0;startSize=0;swimlaneHead=0;swimlaneBody=0;fillColor=none;collapsible=0;dropTarget=0;points=[[0,0.5],[1,0.5]];portConstraint=eastwest;top=0;left=0;right=0;bottom=0;" vertex="1" parent="QdTI1uhQyMlmlqkuTwOz-372">
          <mxGeometry y="90" width="330" height="30" as="geometry" />
        </mxCell>
        <mxCell id="QdTI1uhQyMlmlqkuTwOz-380" value="" style="shape=partialRectangle;connectable=0;fillColor=none;top=0;left=0;bottom=0;right=0;editable=1;overflow=hidden;whiteSpace=wrap;html=1;" vertex="1" parent="QdTI1uhQyMlmlqkuTwOz-379">
          <mxGeometry width="30" height="30" as="geometry">
            <mxRectangle width="30" height="30" as="alternateBounds" />
          </mxGeometry>
        </mxCell>
        <mxCell id="QdTI1uhQyMlmlqkuTwOz-381" value="_last_name" style="shape=partialRectangle;connectable=0;fillColor=none;top=0;left=0;bottom=0;right=0;align=left;spacingLeft=6;overflow=hidden;whiteSpace=wrap;html=1;" vertex="1" parent="QdTI1uhQyMlmlqkuTwOz-379">
          <mxGeometry x="30" width="150" height="30" as="geometry">
            <mxRectangle width="150" height="30" as="alternateBounds" />
          </mxGeometry>
        </mxCell>
        <mxCell id="QdTI1uhQyMlmlqkuTwOz-393" value="VARCHAR(20)" style="shape=partialRectangle;connectable=0;fillColor=none;top=0;left=0;bottom=0;right=0;align=left;spacingLeft=6;overflow=hidden;whiteSpace=wrap;html=1;" vertex="1" parent="QdTI1uhQyMlmlqkuTwOz-379">
          <mxGeometry x="180" width="150" height="30" as="geometry">
            <mxRectangle width="150" height="30" as="alternateBounds" />
          </mxGeometry>
        </mxCell>
        <mxCell id="QdTI1uhQyMlmlqkuTwOz-382" value="" style="shape=tableRow;horizontal=0;startSize=0;swimlaneHead=0;swimlaneBody=0;fillColor=none;collapsible=0;dropTarget=0;points=[[0,0.5],[1,0.5]];portConstraint=eastwest;top=0;left=0;right=0;bottom=0;" vertex="1" parent="QdTI1uhQyMlmlqkuTwOz-372">
          <mxGeometry y="120" width="330" height="30" as="geometry" />
        </mxCell>
        <mxCell id="QdTI1uhQyMlmlqkuTwOz-383" value="" style="shape=partialRectangle;connectable=0;fillColor=none;top=0;left=0;bottom=0;right=0;editable=1;overflow=hidden;whiteSpace=wrap;html=1;" vertex="1" parent="QdTI1uhQyMlmlqkuTwOz-382">
          <mxGeometry width="30" height="30" as="geometry">
            <mxRectangle width="30" height="30" as="alternateBounds" />
          </mxGeometry>
        </mxCell>
        <mxCell id="QdTI1uhQyMlmlqkuTwOz-384" value="_acc_no" style="shape=partialRectangle;connectable=0;fillColor=none;top=0;left=0;bottom=0;right=0;align=left;spacingLeft=6;overflow=hidden;whiteSpace=wrap;html=1;" vertex="1" parent="QdTI1uhQyMlmlqkuTwOz-382">
          <mxGeometry x="30" width="150" height="30" as="geometry">
            <mxRectangle width="150" height="30" as="alternateBounds" />
          </mxGeometry>
        </mxCell>
        <mxCell id="QdTI1uhQyMlmlqkuTwOz-394" value="VARCHAR(20)" style="shape=partialRectangle;connectable=0;fillColor=none;top=0;left=0;bottom=0;right=0;align=left;spacingLeft=6;overflow=hidden;whiteSpace=wrap;html=1;" vertex="1" parent="QdTI1uhQyMlmlqkuTwOz-382">
          <mxGeometry x="180" width="150" height="30" as="geometry">
            <mxRectangle width="150" height="30" as="alternateBounds" />
          </mxGeometry>
        </mxCell>
        <mxCell id="QdTI1uhQyMlmlqkuTwOz-385" style="shape=tableRow;horizontal=0;startSize=0;swimlaneHead=0;swimlaneBody=0;fillColor=none;collapsible=0;dropTarget=0;points=[[0,0.5],[1,0.5]];portConstraint=eastwest;top=0;left=0;right=0;bottom=0;" vertex="1" parent="QdTI1uhQyMlmlqkuTwOz-372">
          <mxGeometry y="150" width="330" height="30" as="geometry" />
        </mxCell>
        <mxCell id="QdTI1uhQyMlmlqkuTwOz-386" style="shape=partialRectangle;connectable=0;fillColor=none;top=0;left=0;bottom=0;right=0;editable=1;overflow=hidden;whiteSpace=wrap;html=1;" vertex="1" parent="QdTI1uhQyMlmlqkuTwOz-385">
          <mxGeometry width="30" height="30" as="geometry">
            <mxRectangle width="30" height="30" as="alternateBounds" />
          </mxGeometry>
        </mxCell>
        <mxCell id="QdTI1uhQyMlmlqkuTwOz-387" value="_ifsc_code" style="shape=partialRectangle;connectable=0;fillColor=none;top=0;left=0;bottom=0;right=0;align=left;spacingLeft=6;overflow=hidden;whiteSpace=wrap;html=1;" vertex="1" parent="QdTI1uhQyMlmlqkuTwOz-385">
          <mxGeometry x="30" width="150" height="30" as="geometry">
            <mxRectangle width="150" height="30" as="alternateBounds" />
          </mxGeometry>
        </mxCell>
        <mxCell id="QdTI1uhQyMlmlqkuTwOz-395" value="VARCHAR(10)" style="shape=partialRectangle;connectable=0;fillColor=none;top=0;left=0;bottom=0;right=0;align=left;spacingLeft=6;overflow=hidden;whiteSpace=wrap;html=1;" vertex="1" parent="QdTI1uhQyMlmlqkuTwOz-385">
          <mxGeometry x="180" width="150" height="30" as="geometry">
            <mxRectangle width="150" height="30" as="alternateBounds" />
          </mxGeometry>
        </mxCell>
        <mxCell id="QdTI1uhQyMlmlqkuTwOz-388" style="shape=tableRow;horizontal=0;startSize=0;swimlaneHead=0;swimlaneBody=0;fillColor=none;collapsible=0;dropTarget=0;points=[[0,0.5],[1,0.5]];portConstraint=eastwest;top=0;left=0;right=0;bottom=0;" vertex="1" parent="QdTI1uhQyMlmlqkuTwOz-372">
          <mxGeometry y="180" width="330" height="30" as="geometry" />
        </mxCell>
        <mxCell id="QdTI1uhQyMlmlqkuTwOz-389" style="shape=partialRectangle;connectable=0;fillColor=none;top=0;left=0;bottom=0;right=0;editable=1;overflow=hidden;whiteSpace=wrap;html=1;" vertex="1" parent="QdTI1uhQyMlmlqkuTwOz-388">
          <mxGeometry width="30" height="30" as="geometry">
            <mxRectangle width="30" height="30" as="alternateBounds" />
          </mxGeometry>
        </mxCell>
        <mxCell id="QdTI1uhQyMlmlqkuTwOz-390" value="_branch_code" style="shape=partialRectangle;connectable=0;fillColor=none;top=0;left=0;bottom=0;right=0;align=left;spacingLeft=6;overflow=hidden;whiteSpace=wrap;html=1;" vertex="1" parent="QdTI1uhQyMlmlqkuTwOz-388">
          <mxGeometry x="30" width="150" height="30" as="geometry">
            <mxRectangle width="150" height="30" as="alternateBounds" />
          </mxGeometry>
        </mxCell>
        <mxCell id="QdTI1uhQyMlmlqkuTwOz-396" value="VARCHAR(10)" style="shape=partialRectangle;connectable=0;fillColor=none;top=0;left=0;bottom=0;right=0;align=left;spacingLeft=6;overflow=hidden;whiteSpace=wrap;html=1;" vertex="1" parent="QdTI1uhQyMlmlqkuTwOz-388">
          <mxGeometry x="180" width="150" height="30" as="geometry">
            <mxRectangle width="150" height="30" as="alternateBounds" />
          </mxGeometry>
        </mxCell>
        <mxCell id="QdTI1uhQyMlmlqkuTwOz-398" value="" style="edgeStyle=entityRelationEdgeStyle;fontSize=12;html=1;endArrow=ERmandOne;rounded=0;exitX=0;exitY=0.5;exitDx=0;exitDy=0;entryX=1;entryY=0.5;entryDx=0;entryDy=0;" edge="1" parent="1" source="QdTI1uhQyMlmlqkuTwOz-121" target="QdTI1uhQyMlmlqkuTwOz-373">
          <mxGeometry width="100" height="100" relative="1" as="geometry">
            <mxPoint x="-581" y="492" as="sourcePoint" />
            <mxPoint x="-481" y="392" as="targetPoint" />
          </mxGeometry>
        </mxCell>
        <mxCell id="QdTI1uhQyMlmlqkuTwOz-399" value="" style="endArrow=classic;html=1;rounded=0;exitX=0.242;exitY=1.167;exitDx=0;exitDy=0;exitPerimeter=0;entryX=0.5;entryY=0;entryDx=0;entryDy=0;" edge="1" parent="1" source="QdTI1uhQyMlmlqkuTwOz-23" target="QdTI1uhQyMlmlqkuTwOz-79">
          <mxGeometry width="50" height="50" relative="1" as="geometry">
            <mxPoint x="-323" y="225" as="sourcePoint" />
            <mxPoint x="-273" y="175" as="targetPoint" />
          </mxGeometry>
        </mxCell>
        <mxCell id="QdTI1uhQyMlmlqkuTwOz-400" value="" style="endArrow=classic;html=1;rounded=0;entryX=0.5;entryY=0;entryDx=0;entryDy=0;" edge="1" parent="1" source="QdTI1uhQyMlmlqkuTwOz-23" target="QdTI1uhQyMlmlqkuTwOz-66">
          <mxGeometry width="50" height="50" relative="1" as="geometry">
            <mxPoint x="-323" y="225" as="sourcePoint" />
            <mxPoint x="-273" y="175" as="targetPoint" />
          </mxGeometry>
        </mxCell>
        <mxCell id="QdTI1uhQyMlmlqkuTwOz-401" value="CUSTOMER" style="shape=table;startSize=30;container=1;collapsible=1;childLayout=tableLayout;fixedRows=1;rowLines=0;fontStyle=1;align=center;resizeLast=1;html=1;" vertex="1" parent="1">
          <mxGeometry x="-616" y="143" width="180" height="60" as="geometry" />
        </mxCell>
        <mxCell id="QdTI1uhQyMlmlqkuTwOz-405" value="" style="shape=tableRow;horizontal=0;startSize=0;swimlaneHead=0;swimlaneBody=0;fillColor=none;collapsible=0;dropTarget=0;points=[[0,0.5],[1,0.5]];portConstraint=eastwest;top=0;left=0;right=0;bottom=0;" vertex="1" parent="QdTI1uhQyMlmlqkuTwOz-401">
          <mxGeometry y="30" width="180" height="30" as="geometry" />
        </mxCell>
        <mxCell id="QdTI1uhQyMlmlqkuTwOz-406" value="" style="shape=partialRectangle;connectable=0;fillColor=none;top=0;left=0;bottom=0;right=0;editable=1;overflow=hidden;whiteSpace=wrap;html=1;" vertex="1" parent="QdTI1uhQyMlmlqkuTwOz-405">
          <mxGeometry width="30" height="30" as="geometry">
            <mxRectangle width="30" height="30" as="alternateBounds" />
          </mxGeometry>
        </mxCell>
        <mxCell id="QdTI1uhQyMlmlqkuTwOz-407" value="_delivery_addresses" style="shape=partialRectangle;connectable=0;fillColor=none;top=0;left=0;bottom=0;right=0;align=left;spacingLeft=6;overflow=hidden;whiteSpace=wrap;html=1;" vertex="1" parent="QdTI1uhQyMlmlqkuTwOz-405">
          <mxGeometry x="30" width="150" height="30" as="geometry">
            <mxRectangle width="150" height="30" as="alternateBounds" />
          </mxGeometry>
        </mxCell>
        <mxCell id="QdTI1uhQyMlmlqkuTwOz-414" value="" style="endArrow=classic;html=1;rounded=0;entryX=0.5;entryY=0;entryDx=0;entryDy=0;exitX=0.423;exitY=1.048;exitDx=0;exitDy=0;exitPerimeter=0;" edge="1" parent="1" source="QdTI1uhQyMlmlqkuTwOz-23" target="QdTI1uhQyMlmlqkuTwOz-401">
          <mxGeometry width="50" height="50" relative="1" as="geometry">
            <mxPoint x="-469" y="45" as="sourcePoint" />
            <mxPoint x="-166" y="291" as="targetPoint" />
          </mxGeometry>
        </mxCell>
        <mxCell id="QdTI1uhQyMlmlqkuTwOz-415" value="" style="edgeStyle=entityRelationEdgeStyle;fontSize=12;html=1;endArrow=ERmandOne;startArrow=ERmandOne;rounded=0;entryX=0;entryY=0.5;entryDx=0;entryDy=0;exitX=1;exitY=0.5;exitDx=0;exitDy=0;" edge="1" parent="1" source="QdTI1uhQyMlmlqkuTwOz-417" target="QdTI1uhQyMlmlqkuTwOz-293">
          <mxGeometry width="100" height="100" relative="1" as="geometry">
            <mxPoint x="-721" y="816" as="sourcePoint" />
            <mxPoint x="-721" y="496" as="targetPoint" />
          </mxGeometry>
        </mxCell>
        <mxCell id="QdTI1uhQyMlmlqkuTwOz-416" value="" style="edgeStyle=entityRelationEdgeStyle;fontSize=12;html=1;endArrow=ERmandOne;startArrow=ERmandOne;rounded=0;entryX=0;entryY=0.5;entryDx=0;entryDy=0;exitX=1;exitY=0.5;exitDx=0;exitDy=0;" edge="1" parent="1" source="QdTI1uhQyMlmlqkuTwOz-376" target="QdTI1uhQyMlmlqkuTwOz-117">
          <mxGeometry width="100" height="100" relative="1" as="geometry">
            <mxPoint x="-711" y="826" as="sourcePoint" />
            <mxPoint x="-364" y="763" as="targetPoint" />
            <Array as="points">
              <mxPoint x="-727" y="529" />
              <mxPoint x="-752" y="582" />
            </Array>
          </mxGeometry>
        </mxCell>
        <mxCell id="QdTI1uhQyMlmlqkuTwOz-421" value="" style="edgeStyle=entityRelationEdgeStyle;fontSize=12;html=1;endArrow=ERzeroToMany;startArrow=ERmandOne;rounded=0;exitX=1;exitY=0.5;exitDx=0;exitDy=0;entryX=0;entryY=0.5;entryDx=0;entryDy=0;" edge="1" parent="1" source="QdTI1uhQyMlmlqkuTwOz-293" target="QdTI1uhQyMlmlqkuTwOz-70">
          <mxGeometry width="100" height="100" relative="1" as="geometry">
            <mxPoint x="-358" y="497" as="sourcePoint" />
            <mxPoint x="-137" y="419" as="targetPoint" />
          </mxGeometry>
        </mxCell>
        <mxCell id="QdTI1uhQyMlmlqkuTwOz-422" value="" style="edgeStyle=entityRelationEdgeStyle;fontSize=12;html=1;endArrow=ERzeroToMany;startArrow=ERmandOne;rounded=0;exitX=1;exitY=0.5;exitDx=0;exitDy=0;entryX=0;entryY=0.5;entryDx=0;entryDy=0;" edge="1" parent="1" source="QdTI1uhQyMlmlqkuTwOz-405" target="QdTI1uhQyMlmlqkuTwOz-311">
          <mxGeometry width="100" height="100" relative="1" as="geometry">
            <mxPoint x="-487" y="300" as="sourcePoint" />
            <mxPoint x="12" y="77" as="targetPoint" />
          </mxGeometry>
        </mxCell>
        <mxCell id="QdTI1uhQyMlmlqkuTwOz-423" value="" style="edgeStyle=entityRelationEdgeStyle;fontSize=12;html=1;endArrow=ERmandOne;startArrow=ERmandOne;rounded=0;entryX=0;entryY=0.5;entryDx=0;entryDy=0;exitX=1.001;exitY=0.124;exitDx=0;exitDy=0;exitPerimeter=0;" edge="1" parent="1" source="QdTI1uhQyMlmlqkuTwOz-292" target="QdTI1uhQyMlmlqkuTwOz-314">
          <mxGeometry width="100" height="100" relative="1" as="geometry">
            <mxPoint x="-323" y="240" as="sourcePoint" />
            <mxPoint x="-223" y="140" as="targetPoint" />
          </mxGeometry>
        </mxCell>
        <mxCell id="QdTI1uhQyMlmlqkuTwOz-424" value="PRODUCTS" style="shape=table;startSize=30;container=1;collapsible=1;childLayout=tableLayout;fixedRows=1;rowLines=0;fontStyle=1;align=center;resizeLast=1;html=1;" vertex="1" parent="1">
          <mxGeometry x="-790" y="-926" width="330" height="360" as="geometry" />
        </mxCell>
        <mxCell id="QdTI1uhQyMlmlqkuTwOz-425" value="" style="shape=tableRow;horizontal=0;startSize=0;swimlaneHead=0;swimlaneBody=0;fillColor=none;collapsible=0;dropTarget=0;points=[[0,0.5],[1,0.5]];portConstraint=eastwest;top=0;left=0;right=0;bottom=1;" vertex="1" parent="QdTI1uhQyMlmlqkuTwOz-424">
          <mxGeometry y="30" width="330" height="30" as="geometry" />
        </mxCell>
        <mxCell id="QdTI1uhQyMlmlqkuTwOz-426" value="PK" style="shape=partialRectangle;connectable=0;fillColor=none;top=0;left=0;bottom=0;right=0;fontStyle=1;overflow=hidden;whiteSpace=wrap;html=1;" vertex="1" parent="QdTI1uhQyMlmlqkuTwOz-425">
          <mxGeometry width="30" height="30" as="geometry">
            <mxRectangle width="30" height="30" as="alternateBounds" />
          </mxGeometry>
        </mxCell>
        <mxCell id="QdTI1uhQyMlmlqkuTwOz-427" value="id" style="shape=partialRectangle;connectable=0;fillColor=none;top=0;left=0;bottom=0;right=0;align=left;spacingLeft=6;fontStyle=5;overflow=hidden;whiteSpace=wrap;html=1;" vertex="1" parent="QdTI1uhQyMlmlqkuTwOz-425">
          <mxGeometry x="30" width="150" height="30" as="geometry">
            <mxRectangle width="150" height="30" as="alternateBounds" />
          </mxGeometry>
        </mxCell>
        <mxCell id="QdTI1uhQyMlmlqkuTwOz-467" value="UUID" style="shape=partialRectangle;connectable=0;fillColor=none;top=0;left=0;bottom=0;right=0;align=left;spacingLeft=6;fontStyle=5;overflow=hidden;whiteSpace=wrap;html=1;" vertex="1" parent="QdTI1uhQyMlmlqkuTwOz-425">
          <mxGeometry x="180" width="150" height="30" as="geometry">
            <mxRectangle width="150" height="30" as="alternateBounds" />
          </mxGeometry>
        </mxCell>
        <mxCell id="QdTI1uhQyMlmlqkuTwOz-428" value="" style="shape=tableRow;horizontal=0;startSize=0;swimlaneHead=0;swimlaneBody=0;fillColor=none;collapsible=0;dropTarget=0;points=[[0,0.5],[1,0.5]];portConstraint=eastwest;top=0;left=0;right=0;bottom=0;" vertex="1" parent="QdTI1uhQyMlmlqkuTwOz-424">
          <mxGeometry y="60" width="330" height="30" as="geometry" />
        </mxCell>
        <mxCell id="QdTI1uhQyMlmlqkuTwOz-429" value="" style="shape=partialRectangle;connectable=0;fillColor=none;top=0;left=0;bottom=0;right=0;editable=1;overflow=hidden;whiteSpace=wrap;html=1;" vertex="1" parent="QdTI1uhQyMlmlqkuTwOz-428">
          <mxGeometry width="30" height="30" as="geometry">
            <mxRectangle width="30" height="30" as="alternateBounds" />
          </mxGeometry>
        </mxCell>
        <mxCell id="QdTI1uhQyMlmlqkuTwOz-430" value="_name" style="shape=partialRectangle;connectable=0;fillColor=none;top=0;left=0;bottom=0;right=0;align=left;spacingLeft=6;overflow=hidden;whiteSpace=wrap;html=1;" vertex="1" parent="QdTI1uhQyMlmlqkuTwOz-428">
          <mxGeometry x="30" width="150" height="30" as="geometry">
            <mxRectangle width="150" height="30" as="alternateBounds" />
          </mxGeometry>
        </mxCell>
        <mxCell id="QdTI1uhQyMlmlqkuTwOz-468" value="VARCHAR(200)" style="shape=partialRectangle;connectable=0;fillColor=none;top=0;left=0;bottom=0;right=0;align=left;spacingLeft=6;overflow=hidden;whiteSpace=wrap;html=1;" vertex="1" parent="QdTI1uhQyMlmlqkuTwOz-428">
          <mxGeometry x="180" width="150" height="30" as="geometry">
            <mxRectangle width="150" height="30" as="alternateBounds" />
          </mxGeometry>
        </mxCell>
        <mxCell id="QdTI1uhQyMlmlqkuTwOz-449" value="" style="shape=tableRow;horizontal=0;startSize=0;swimlaneHead=0;swimlaneBody=0;fillColor=none;collapsible=0;dropTarget=0;points=[[0,0.5],[1,0.5]];portConstraint=eastwest;top=0;left=0;right=0;bottom=0;" vertex="1" parent="QdTI1uhQyMlmlqkuTwOz-424">
          <mxGeometry y="90" width="330" height="30" as="geometry" />
        </mxCell>
        <mxCell id="QdTI1uhQyMlmlqkuTwOz-450" value="" style="shape=partialRectangle;connectable=0;fillColor=none;top=0;left=0;bottom=0;right=0;editable=1;overflow=hidden;whiteSpace=wrap;html=1;" vertex="1" parent="QdTI1uhQyMlmlqkuTwOz-449">
          <mxGeometry width="30" height="30" as="geometry">
            <mxRectangle width="30" height="30" as="alternateBounds" />
          </mxGeometry>
        </mxCell>
        <mxCell id="QdTI1uhQyMlmlqkuTwOz-451" value="_description" style="shape=partialRectangle;connectable=0;fillColor=none;top=0;left=0;bottom=0;right=0;align=left;spacingLeft=6;overflow=hidden;whiteSpace=wrap;html=1;" vertex="1" parent="QdTI1uhQyMlmlqkuTwOz-449">
          <mxGeometry x="30" width="150" height="30" as="geometry">
            <mxRectangle width="150" height="30" as="alternateBounds" />
          </mxGeometry>
        </mxCell>
        <mxCell id="QdTI1uhQyMlmlqkuTwOz-469" value="VARHCAR(350)" style="shape=partialRectangle;connectable=0;fillColor=none;top=0;left=0;bottom=0;right=0;align=left;spacingLeft=6;overflow=hidden;whiteSpace=wrap;html=1;" vertex="1" parent="QdTI1uhQyMlmlqkuTwOz-449">
          <mxGeometry x="180" width="150" height="30" as="geometry">
            <mxRectangle width="150" height="30" as="alternateBounds" />
          </mxGeometry>
        </mxCell>
        <mxCell id="QdTI1uhQyMlmlqkuTwOz-452" value="" style="shape=tableRow;horizontal=0;startSize=0;swimlaneHead=0;swimlaneBody=0;fillColor=none;collapsible=0;dropTarget=0;points=[[0,0.5],[1,0.5]];portConstraint=eastwest;top=0;left=0;right=0;bottom=0;" vertex="1" parent="QdTI1uhQyMlmlqkuTwOz-424">
          <mxGeometry y="120" width="330" height="30" as="geometry" />
        </mxCell>
        <mxCell id="QdTI1uhQyMlmlqkuTwOz-453" value="" style="shape=partialRectangle;connectable=0;fillColor=none;top=0;left=0;bottom=0;right=0;editable=1;overflow=hidden;whiteSpace=wrap;html=1;" vertex="1" parent="QdTI1uhQyMlmlqkuTwOz-452">
          <mxGeometry width="30" height="30" as="geometry">
            <mxRectangle width="30" height="30" as="alternateBounds" />
          </mxGeometry>
        </mxCell>
        <mxCell id="QdTI1uhQyMlmlqkuTwOz-454" value="_image" style="shape=partialRectangle;connectable=0;fillColor=none;top=0;left=0;bottom=0;right=0;align=left;spacingLeft=6;overflow=hidden;whiteSpace=wrap;html=1;" vertex="1" parent="QdTI1uhQyMlmlqkuTwOz-452">
          <mxGeometry x="30" width="150" height="30" as="geometry">
            <mxRectangle width="150" height="30" as="alternateBounds" />
          </mxGeometry>
        </mxCell>
        <mxCell id="QdTI1uhQyMlmlqkuTwOz-470" value="LOB" style="shape=partialRectangle;connectable=0;fillColor=none;top=0;left=0;bottom=0;right=0;align=left;spacingLeft=6;overflow=hidden;whiteSpace=wrap;html=1;" vertex="1" parent="QdTI1uhQyMlmlqkuTwOz-452">
          <mxGeometry x="180" width="150" height="30" as="geometry">
            <mxRectangle width="150" height="30" as="alternateBounds" />
          </mxGeometry>
        </mxCell>
        <mxCell id="QdTI1uhQyMlmlqkuTwOz-431" value="" style="shape=tableRow;horizontal=0;startSize=0;swimlaneHead=0;swimlaneBody=0;fillColor=none;collapsible=0;dropTarget=0;points=[[0,0.5],[1,0.5]];portConstraint=eastwest;top=0;left=0;right=0;bottom=0;" vertex="1" parent="QdTI1uhQyMlmlqkuTwOz-424">
          <mxGeometry y="150" width="330" height="30" as="geometry" />
        </mxCell>
        <mxCell id="QdTI1uhQyMlmlqkuTwOz-432" value="" style="shape=partialRectangle;connectable=0;fillColor=none;top=0;left=0;bottom=0;right=0;editable=1;overflow=hidden;whiteSpace=wrap;html=1;" vertex="1" parent="QdTI1uhQyMlmlqkuTwOz-431">
          <mxGeometry width="30" height="30" as="geometry">
            <mxRectangle width="30" height="30" as="alternateBounds" />
          </mxGeometry>
        </mxCell>
        <mxCell id="QdTI1uhQyMlmlqkuTwOz-433" value="_price" style="shape=partialRectangle;connectable=0;fillColor=none;top=0;left=0;bottom=0;right=0;align=left;spacingLeft=6;overflow=hidden;whiteSpace=wrap;html=1;" vertex="1" parent="QdTI1uhQyMlmlqkuTwOz-431">
          <mxGeometry x="30" width="150" height="30" as="geometry">
            <mxRectangle width="150" height="30" as="alternateBounds" />
          </mxGeometry>
        </mxCell>
        <mxCell id="QdTI1uhQyMlmlqkuTwOz-471" value="DECIMAL" style="shape=partialRectangle;connectable=0;fillColor=none;top=0;left=0;bottom=0;right=0;align=left;spacingLeft=6;overflow=hidden;whiteSpace=wrap;html=1;" vertex="1" parent="QdTI1uhQyMlmlqkuTwOz-431">
          <mxGeometry x="180" width="150" height="30" as="geometry">
            <mxRectangle width="150" height="30" as="alternateBounds" />
          </mxGeometry>
        </mxCell>
        <mxCell id="QdTI1uhQyMlmlqkuTwOz-434" value="" style="shape=tableRow;horizontal=0;startSize=0;swimlaneHead=0;swimlaneBody=0;fillColor=none;collapsible=0;dropTarget=0;points=[[0,0.5],[1,0.5]];portConstraint=eastwest;top=0;left=0;right=0;bottom=0;" vertex="1" parent="QdTI1uhQyMlmlqkuTwOz-424">
          <mxGeometry y="180" width="330" height="30" as="geometry" />
        </mxCell>
        <mxCell id="QdTI1uhQyMlmlqkuTwOz-435" value="" style="shape=partialRectangle;connectable=0;fillColor=none;top=0;left=0;bottom=0;right=0;editable=1;overflow=hidden;whiteSpace=wrap;html=1;" vertex="1" parent="QdTI1uhQyMlmlqkuTwOz-434">
          <mxGeometry width="30" height="30" as="geometry">
            <mxRectangle width="30" height="30" as="alternateBounds" />
          </mxGeometry>
        </mxCell>
        <mxCell id="QdTI1uhQyMlmlqkuTwOz-436" value="_discount" style="shape=partialRectangle;connectable=0;fillColor=none;top=0;left=0;bottom=0;right=0;align=left;spacingLeft=6;overflow=hidden;whiteSpace=wrap;html=1;" vertex="1" parent="QdTI1uhQyMlmlqkuTwOz-434">
          <mxGeometry x="30" width="150" height="30" as="geometry">
            <mxRectangle width="150" height="30" as="alternateBounds" />
          </mxGeometry>
        </mxCell>
        <mxCell id="QdTI1uhQyMlmlqkuTwOz-472" value="INT" style="shape=partialRectangle;connectable=0;fillColor=none;top=0;left=0;bottom=0;right=0;align=left;spacingLeft=6;overflow=hidden;whiteSpace=wrap;html=1;" vertex="1" parent="QdTI1uhQyMlmlqkuTwOz-434">
          <mxGeometry x="180" width="150" height="30" as="geometry">
            <mxRectangle width="150" height="30" as="alternateBounds" />
          </mxGeometry>
        </mxCell>
        <mxCell id="QdTI1uhQyMlmlqkuTwOz-440" value="" style="shape=tableRow;horizontal=0;startSize=0;swimlaneHead=0;swimlaneBody=0;fillColor=none;collapsible=0;dropTarget=0;points=[[0,0.5],[1,0.5]];portConstraint=eastwest;top=0;left=0;right=0;bottom=0;" vertex="1" parent="QdTI1uhQyMlmlqkuTwOz-424">
          <mxGeometry y="210" width="330" height="30" as="geometry" />
        </mxCell>
        <mxCell id="QdTI1uhQyMlmlqkuTwOz-441" value="" style="shape=partialRectangle;connectable=0;fillColor=none;top=0;left=0;bottom=0;right=0;editable=1;overflow=hidden;whiteSpace=wrap;html=1;" vertex="1" parent="QdTI1uhQyMlmlqkuTwOz-440">
          <mxGeometry width="30" height="30" as="geometry">
            <mxRectangle width="30" height="30" as="alternateBounds" />
          </mxGeometry>
        </mxCell>
        <mxCell id="QdTI1uhQyMlmlqkuTwOz-442" value="_category" style="shape=partialRectangle;connectable=0;fillColor=none;top=0;left=0;bottom=0;right=0;align=left;spacingLeft=6;overflow=hidden;whiteSpace=wrap;html=1;" vertex="1" parent="QdTI1uhQyMlmlqkuTwOz-440">
          <mxGeometry x="30" width="150" height="30" as="geometry">
            <mxRectangle width="150" height="30" as="alternateBounds" />
          </mxGeometry>
        </mxCell>
        <mxCell id="QdTI1uhQyMlmlqkuTwOz-473" value="ENUM()" style="shape=partialRectangle;connectable=0;fillColor=none;top=0;left=0;bottom=0;right=0;align=left;spacingLeft=6;overflow=hidden;whiteSpace=wrap;html=1;" vertex="1" parent="QdTI1uhQyMlmlqkuTwOz-440">
          <mxGeometry x="180" width="150" height="30" as="geometry">
            <mxRectangle width="150" height="30" as="alternateBounds" />
          </mxGeometry>
        </mxCell>
        <mxCell id="QdTI1uhQyMlmlqkuTwOz-443" value="" style="shape=tableRow;horizontal=0;startSize=0;swimlaneHead=0;swimlaneBody=0;fillColor=none;collapsible=0;dropTarget=0;points=[[0,0.5],[1,0.5]];portConstraint=eastwest;top=0;left=0;right=0;bottom=0;" vertex="1" parent="QdTI1uhQyMlmlqkuTwOz-424">
          <mxGeometry y="240" width="330" height="30" as="geometry" />
        </mxCell>
        <mxCell id="QdTI1uhQyMlmlqkuTwOz-444" value="" style="shape=partialRectangle;connectable=0;fillColor=none;top=0;left=0;bottom=0;right=0;editable=1;overflow=hidden;whiteSpace=wrap;html=1;" vertex="1" parent="QdTI1uhQyMlmlqkuTwOz-443">
          <mxGeometry width="30" height="30" as="geometry">
            <mxRectangle width="30" height="30" as="alternateBounds" />
          </mxGeometry>
        </mxCell>
        <mxCell id="QdTI1uhQyMlmlqkuTwOz-445" value="_search__tagline" style="shape=partialRectangle;connectable=0;fillColor=none;top=0;left=0;bottom=0;right=0;align=left;spacingLeft=6;overflow=hidden;whiteSpace=wrap;html=1;" vertex="1" parent="QdTI1uhQyMlmlqkuTwOz-443">
          <mxGeometry x="30" width="150" height="30" as="geometry">
            <mxRectangle width="150" height="30" as="alternateBounds" />
          </mxGeometry>
        </mxCell>
        <mxCell id="QdTI1uhQyMlmlqkuTwOz-474" value="VARCHAR(1000)" style="shape=partialRectangle;connectable=0;fillColor=none;top=0;left=0;bottom=0;right=0;align=left;spacingLeft=6;overflow=hidden;whiteSpace=wrap;html=1;" vertex="1" parent="QdTI1uhQyMlmlqkuTwOz-443">
          <mxGeometry x="180" width="150" height="30" as="geometry">
            <mxRectangle width="150" height="30" as="alternateBounds" />
          </mxGeometry>
        </mxCell>
        <mxCell id="QdTI1uhQyMlmlqkuTwOz-437" value="" style="shape=tableRow;horizontal=0;startSize=0;swimlaneHead=0;swimlaneBody=0;fillColor=none;collapsible=0;dropTarget=0;points=[[0,0.5],[1,0.5]];portConstraint=eastwest;top=0;left=0;right=0;bottom=0;" vertex="1" parent="QdTI1uhQyMlmlqkuTwOz-424">
          <mxGeometry y="270" width="330" height="30" as="geometry" />
        </mxCell>
        <mxCell id="QdTI1uhQyMlmlqkuTwOz-438" value="" style="shape=partialRectangle;connectable=0;fillColor=none;top=0;left=0;bottom=0;right=0;editable=1;overflow=hidden;whiteSpace=wrap;html=1;" vertex="1" parent="QdTI1uhQyMlmlqkuTwOz-437">
          <mxGeometry width="30" height="30" as="geometry">
            <mxRectangle width="30" height="30" as="alternateBounds" />
          </mxGeometry>
        </mxCell>
        <mxCell id="QdTI1uhQyMlmlqkuTwOz-439" value="_specification" style="shape=partialRectangle;connectable=0;fillColor=none;top=0;left=0;bottom=0;right=0;align=left;spacingLeft=6;overflow=hidden;whiteSpace=wrap;html=1;" vertex="1" parent="QdTI1uhQyMlmlqkuTwOz-437">
          <mxGeometry x="30" width="150" height="30" as="geometry">
            <mxRectangle width="150" height="30" as="alternateBounds" />
          </mxGeometry>
        </mxCell>
        <mxCell id="QdTI1uhQyMlmlqkuTwOz-476" value="NULL" style="shape=partialRectangle;connectable=0;fillColor=none;top=0;left=0;bottom=0;right=0;align=left;spacingLeft=6;overflow=hidden;whiteSpace=wrap;html=1;" vertex="1" parent="QdTI1uhQyMlmlqkuTwOz-437">
          <mxGeometry x="180" width="150" height="30" as="geometry">
            <mxRectangle width="150" height="30" as="alternateBounds" />
          </mxGeometry>
        </mxCell>
        <mxCell id="QdTI1uhQyMlmlqkuTwOz-458" value="" style="shape=tableRow;horizontal=0;startSize=0;swimlaneHead=0;swimlaneBody=0;fillColor=none;collapsible=0;dropTarget=0;points=[[0,0.5],[1,0.5]];portConstraint=eastwest;top=0;left=0;right=0;bottom=0;" vertex="1" parent="QdTI1uhQyMlmlqkuTwOz-424">
          <mxGeometry y="300" width="330" height="30" as="geometry" />
        </mxCell>
        <mxCell id="QdTI1uhQyMlmlqkuTwOz-459" value="" style="shape=partialRectangle;connectable=0;fillColor=none;top=0;left=0;bottom=0;right=0;editable=1;overflow=hidden;whiteSpace=wrap;html=1;" vertex="1" parent="QdTI1uhQyMlmlqkuTwOz-458">
          <mxGeometry width="30" height="30" as="geometry">
            <mxRectangle width="30" height="30" as="alternateBounds" />
          </mxGeometry>
        </mxCell>
        <mxCell id="QdTI1uhQyMlmlqkuTwOz-460" value="_launch_date" style="shape=partialRectangle;connectable=0;fillColor=none;top=0;left=0;bottom=0;right=0;align=left;spacingLeft=6;overflow=hidden;whiteSpace=wrap;html=1;" vertex="1" parent="QdTI1uhQyMlmlqkuTwOz-458">
          <mxGeometry x="30" width="150" height="30" as="geometry">
            <mxRectangle width="150" height="30" as="alternateBounds" />
          </mxGeometry>
        </mxCell>
        <mxCell id="QdTI1uhQyMlmlqkuTwOz-477" value="DATE" style="shape=partialRectangle;connectable=0;fillColor=none;top=0;left=0;bottom=0;right=0;align=left;spacingLeft=6;overflow=hidden;whiteSpace=wrap;html=1;" vertex="1" parent="QdTI1uhQyMlmlqkuTwOz-458">
          <mxGeometry x="180" width="150" height="30" as="geometry">
            <mxRectangle width="150" height="30" as="alternateBounds" />
          </mxGeometry>
        </mxCell>
        <mxCell id="QdTI1uhQyMlmlqkuTwOz-461" value="" style="shape=tableRow;horizontal=0;startSize=0;swimlaneHead=0;swimlaneBody=0;fillColor=none;collapsible=0;dropTarget=0;points=[[0,0.5],[1,0.5]];portConstraint=eastwest;top=0;left=0;right=0;bottom=0;" vertex="1" parent="QdTI1uhQyMlmlqkuTwOz-424">
          <mxGeometry y="330" width="330" height="30" as="geometry" />
        </mxCell>
        <mxCell id="QdTI1uhQyMlmlqkuTwOz-462" value="" style="shape=partialRectangle;connectable=0;fillColor=none;top=0;left=0;bottom=0;right=0;editable=1;overflow=hidden;whiteSpace=wrap;html=1;" vertex="1" parent="QdTI1uhQyMlmlqkuTwOz-461">
          <mxGeometry width="30" height="30" as="geometry">
            <mxRectangle width="30" height="30" as="alternateBounds" />
          </mxGeometry>
        </mxCell>
        <mxCell id="QdTI1uhQyMlmlqkuTwOz-463" value="_rating" style="shape=partialRectangle;connectable=0;fillColor=none;top=0;left=0;bottom=0;right=0;align=left;spacingLeft=6;overflow=hidden;whiteSpace=wrap;html=1;" vertex="1" parent="QdTI1uhQyMlmlqkuTwOz-461">
          <mxGeometry x="30" width="150" height="30" as="geometry">
            <mxRectangle width="150" height="30" as="alternateBounds" />
          </mxGeometry>
        </mxCell>
        <mxCell id="QdTI1uhQyMlmlqkuTwOz-478" value="INT" style="shape=partialRectangle;connectable=0;fillColor=none;top=0;left=0;bottom=0;right=0;align=left;spacingLeft=6;overflow=hidden;whiteSpace=wrap;html=1;" vertex="1" parent="QdTI1uhQyMlmlqkuTwOz-461">
          <mxGeometry x="180" width="150" height="30" as="geometry">
            <mxRectangle width="150" height="30" as="alternateBounds" />
          </mxGeometry>
        </mxCell>
      </root>
    </mxGraphModel>
  </diagram>
</mxfile>
